<svg xmlns="http://www.w3.org/2000/svg" width="24" height="16" viewBox="0 0 24 16"><defs><style>.a{fill:#0a2463;}</style></defs><g transform="translate(0 -80)"><g transform="translate(0 86.667)"><g transform="translate(0 0)"><path class="a" d="M23.063,236H.937C.42,236,0,236.6,0,237.333s.42,1.333.937,1.333H23.063c.518,0,.938-.6.938-1.333S23.58,236,23.063,236Z" transform="translate(0 -236)"/></g></g><g transform="translate(0 80)"><g transform="translate(0 0)"><path class="a" d="M23.063,76H.937C.42,76,0,76.6,0,77.333s.42,1.333.937,1.333H23.063c.518,0,.938-.6.938-1.333S23.58,76,23.063,76Z" transform="translate(0 -76)"/></g></g><g transform="translate(0 93.333)"><g transform="translate(0 0)"><path class="a" d="M23.063,396H.937C.42,396,0,396.6,0,397.333s.42,1.333.937,1.333H23.063c.518,0,.938-.6.938-1.333S23.58,396,23.063,396Z" transform="translate(0 -396)"/></g></g></g></svg>