<?xml version="1.0" encoding="utf-8"?>
<svg xmlns="http://www.w3.org/2000/svg" xmlns:xlink="http://www.w3.org/1999/xlink" style="margin: auto; background: none; display: block; shape-rendering: auto;" width="200px" height="200px" viewBox="0 0 100 100" preserveAspectRatio="xMidYMid">
<g transform="translate(50 50)">
<g transform="rotate(6.61182)">
<animateTransform attributeName="transform" type="rotate" values="0;27.692307692307693" keyTimes="0;1" dur="0.2s" repeatCount="indefinite"></animateTransform><path d="M33.76388603226827 -4 L39.76388603226827 -4 L39.76388603226827 4 L33.76388603226827 4 A34 34 0 0 1 31.75532902491526 12.149036114827158 L31.75532902491526 12.149036114827158 L37.068065178834516 14.937375147089769 L33.350279802484366 22.021023352315446 L28.03754364856511 19.232684320052837 A34 34 0 0 1 22.472008831154707 25.51487446750434 L22.472008831154707 25.51487446750434 L25.880397311541643 30.45277766286628 L19.296526384392394 34.99729563671552 L15.88813790400546 30.059392441353584 A34 34 0 0 1 8.040622231240912 33.03556256724675 L8.040622231240912 33.03556256724675 L8.763842312772852 38.991815811835075 L0.8221713199884154 39.956109253877656 L0.09895123845647598 33.99985600928933 A34 34 0 0 1 -8.232774021847868 32.988201404520176 L-8.232774021847868 32.988201404520176 L-10.36040334410308 38.59829886063267 L-17.840533285586403 35.76145976429238 L-15.71290396333119 30.15136230817989 A34 34 0 0 1 -22.620140962213725 25.383640850941394 L-22.620140962213725 25.383640850941394 L-27.11120545124033 29.362376800386166 L-32.41618671716668 23.374290815017368 L-27.92512222814008 19.395554865572596 A34 34 0 0 1 -31.825506210386408 11.963994084445888 L-31.825506210386408 11.963994084445888 L-37.65115711494272 13.399888070171237 L-39.56568242924318 5.632353530762831 L-33.74003152468687 4.196459545037483 A34 34 0 0 1 -33.74003152468687 -4.196459545037459 L-33.74003152468687 -4.196459545037459 L-39.56568242924318 -5.632353530762803 L-37.65115711494273 -13.39988807017121 L-31.825506210386415 -11.963994084445865 A34 34 0 0 1 -27.925122228140093 -19.395554865572578 L-27.925122228140093 -19.395554865572578 L-32.4161867171667 -23.374290815017346 L-27.11120545124035 -29.362376800386148 L-22.620140962213743 -25.38364085094138 A34 34 0 0 1 -15.712903963331197 -30.151362308179888 L-15.712903963331197 -30.151362308179888 L-17.84053328558641 -35.761459764292375 L-10.360403344103105 -38.59829886063265 L-8.23277402184789 -32.98820140452017 A34 34 0 0 1 0.09895123845645257 -33.99985600928933 L0.09895123845645257 -33.99985600928933 L0.8221713199883864 -39.956109253877656 L8.763842312772809 -38.99181581183508 L8.040622231240874 -33.03556256724676 A34 34 0 0 1 15.88813790400545 -30.059392441353587 L15.88813790400545 -30.059392441353587 L19.296526384392383 -34.99729563671553 L25.88039731154163 -30.45277766286629 L22.472008831154696 -25.51487446750435 A34 34 0 0 1 28.037543648565098 -19.23268432005285 L28.037543648565098 -19.23268432005285 L33.35027980248435 -22.021023352315467 L37.0680651788345 -14.937375147089801 L31.75532902491525 -12.149036114827187 A34 34 0 0 1 33.76388603226827 -4.000000000000003 M0 -24A24 24 0 1 0 0 24 A24 24 0 1 0 0 -24" fill="#fefbfb"></path></g></g>
<!-- [ldio] generated by https://loading.io/ --></svg>