<svg xmlns="http://www.w3.org/2000/svg" width="24" height="24" viewBox="0 0 24 24"><defs><style>.a{fill:rgba(229,27,78,0.8);}</style></defs><g transform="translate(0 -35.857)"><g transform="translate(0 35.857)"><g transform="translate(0 0)"><path class="a" d="M23.69,56.055,13.846,37.07A2.125,2.125,0,0,0,12,35.857a2.125,2.125,0,0,0-1.846,1.213L.309,56.055a2.868,2.868,0,0,0-.031,2.528,2.129,2.129,0,0,0,1.877,1.274H21.844a2.129,2.129,0,0,0,1.877-1.274A2.868,2.868,0,0,0,23.69,56.055Zm-1.33,1.634a.586.586,0,0,1-.517.351H2.155a.586.586,0,0,1-.517-.351.79.79,0,0,1,.008-.7l9.844-18.985a.554.554,0,0,1,1.017,0l9.844,18.985A.789.789,0,0,1,22.361,57.689Z" transform="translate(0 -35.857)"/></g></g><g transform="translate(10.949 43.333)"><g transform="translate(0 0)"><path class="a" d="M234.636,173a.985.985,0,0,0-1.058,1.028c0,2.006.2,4.889.2,6.895,0,.523.391.742.855.742a.789.789,0,0,0,.841-.742c0-2.006.2-4.889.2-6.895A.989.989,0,0,0,234.636,173Z" transform="translate(-233.578 -173.005)"/></g></g><g transform="translate(10.905 53.161)"><g transform="translate(0 0)"><path class="a" d="M233.767,353.306a1.313,1.313,0,0,0,0,2.6,1.316,1.316,0,0,0,0-2.6Z" transform="translate(-232.651 -353.306)"/></g></g></g></svg>