<svg xmlns="http://www.w3.org/2000/svg" width="108" height="32" viewBox="0 0 108 32"><defs><style>.a{fill:#a6a6a6;}.b{fill:#fff;}</style></defs><path class="a" d="M104.158,32H3.783A3.792,3.792,0,0,1,0,28.214V3.781A3.787,3.787,0,0,1,3.783,0H104.158A3.838,3.838,0,0,1,108,3.781V28.214A3.843,3.843,0,0,1,104.158,32Z"/><path d="M107.4,28.392a3.064,3.064,0,0,1-3.067,3.064H3.961A3.068,3.068,0,0,1,.89,28.392V3.958A3.072,3.072,0,0,1,3.961.89H104.336A3.067,3.067,0,0,1,107.4,3.958V28.392Z" transform="translate(-0.178 -0.178)"/><g transform="translate(10.234 4.974)"><path class="b" d="M26.661,18.3A4.637,4.637,0,0,1,28.87,14.41a4.75,4.75,0,0,0-3.741-2.022c-1.574-.166-3.1.942-3.9.942-.818,0-2.052-.926-3.382-.9a4.98,4.98,0,0,0-4.192,2.557c-1.813,3.138-.461,7.75,1.276,10.287.869,1.242,1.884,2.63,3.213,2.581,1.3-.054,1.786-.829,3.354-.829s2.01.829,3.366.8c1.4-.022,2.274-1.248,3.112-2.5a10.266,10.266,0,0,0,1.423-2.9A4.483,4.483,0,0,1,26.661,18.3Z" transform="translate(-12.792 -7.448)"/><path class="b" d="M26.164,9.488a4.565,4.565,0,0,0,1.045-3.271A4.65,4.65,0,0,0,24.2,7.772a4.344,4.344,0,0,0-1.072,3.15A3.841,3.841,0,0,0,26.164,9.488Z" transform="translate(-14.855 -6.217)"/></g><g transform="translate(33.928 14.401)"><path class="b" d="M51.4,28.842H49.581l-1-3.127H45.127l-.948,3.127H42.41L45.837,18.2h2.117ZM48.286,24.4l-.9-2.78q-.143-.426-.537-2.006h-.032q-.157.679-.506,2.006l-.884,2.78Z" transform="translate(-42.41 -18.04)"/><path class="b" d="M62.814,25.613a4.362,4.362,0,0,1-1.058,3.1A3.1,3.1,0,0,1,59.4,29.719a2.353,2.353,0,0,1-2.18-1.09H57.19v4.044H55.484V24.4q0-1.231-.063-2.527h1.5l.1,1.217h.032a3.035,3.035,0,0,1,4.857-.3A4.23,4.23,0,0,1,62.814,25.613Zm-1.738.062a3.16,3.16,0,0,0-.506-1.848,1.746,1.746,0,0,0-1.485-.758,1.774,1.774,0,0,0-1.145.418,1.941,1.941,0,0,0-.671,1.1,2.233,2.233,0,0,0-.079.52v1.28A2.051,2.051,0,0,0,57.7,27.8a1.7,1.7,0,0,0,1.334.577,1.746,1.746,0,0,0,1.5-.742A3.267,3.267,0,0,0,61.076,25.675Z" transform="translate(-45.012 -18.743)"/><path class="b" d="M73.851,25.613a4.359,4.359,0,0,1-1.059,3.1,3.092,3.092,0,0,1-2.353,1.011,2.351,2.351,0,0,1-2.179-1.09h-.032v4.044H66.522V24.4q0-1.231-.063-2.527h1.5l.1,1.217h.032a3.036,3.036,0,0,1,4.858-.3A4.241,4.241,0,0,1,73.851,25.613Zm-1.738.062a3.161,3.161,0,0,0-.506-1.848,1.744,1.744,0,0,0-1.484-.758,1.776,1.776,0,0,0-1.146.418,1.939,1.939,0,0,0-.67,1.1,2.277,2.277,0,0,0-.079.52v1.28A2.057,2.057,0,0,0,68.74,27.8a1.706,1.706,0,0,0,1.336.577,1.746,1.746,0,0,0,1.5-.742A3.267,3.267,0,0,0,72.113,25.675Z" transform="translate(-47.22 -18.743)"/><path class="b" d="M86.388,25.818a2.837,2.837,0,0,1-.946,2.211,4.191,4.191,0,0,1-2.9.932,5.076,5.076,0,0,1-2.759-.663l.4-1.422a4.675,4.675,0,0,0,2.466.68,2.331,2.331,0,0,0,1.5-.435,1.421,1.421,0,0,0,.536-1.163,1.483,1.483,0,0,0-.442-1.091,4.112,4.112,0,0,0-1.469-.823q-2.8-1.043-2.8-3.053a2.7,2.7,0,0,1,.98-2.151A3.863,3.863,0,0,1,83.561,18a5.167,5.167,0,0,1,2.416.506l-.426,1.39a4.192,4.192,0,0,0-2.038-.49,2.062,2.062,0,0,0-1.4.442,1.264,1.264,0,0,0-.426.964,1.3,1.3,0,0,0,.489,1.042,5.525,5.525,0,0,0,1.549.822,5.255,5.255,0,0,1,2.022,1.294A2.7,2.7,0,0,1,86.388,25.818Z" transform="translate(-49.885 -18.001)"/><path class="b" d="M93.919,22.71h-1.88v3.727q0,1.422,1,1.422a3.033,3.033,0,0,0,.758-.079l.047,1.3a3.864,3.864,0,0,1-1.326.189,2.047,2.047,0,0,1-1.58-.616,3.026,3.026,0,0,1-.569-2.07v-3.87h-1.12v-1.28h1.12V20.023l1.675-.506v1.911h1.88V22.71Z" transform="translate(-51.777 -18.304)"/><path class="b" d="M103.811,25.644A4.211,4.211,0,0,1,102.8,28.55a3.61,3.61,0,0,1-2.813,1.169A3.433,3.433,0,0,1,97.3,28.6a4.082,4.082,0,0,1-1-2.827,4.17,4.17,0,0,1,1.034-2.922,3.58,3.58,0,0,1,2.787-1.138,3.506,3.506,0,0,1,2.717,1.122A4.036,4.036,0,0,1,103.811,25.644Zm-1.77.055a3.453,3.453,0,0,0-.458-1.822,1.685,1.685,0,0,0-1.531-.918,1.71,1.71,0,0,0-1.564.918,3.519,3.519,0,0,0-.458,1.854,3.448,3.448,0,0,0,.458,1.821,1.743,1.743,0,0,0,3.08-.016A3.465,3.465,0,0,0,102.042,25.7Z" transform="translate(-53.186 -18.743)"/><path class="b" d="M111.594,23.369a2.962,2.962,0,0,0-.538-.047,1.612,1.612,0,0,0-1.39.68,2.556,2.556,0,0,0-.426,1.516v4.028h-1.7l.016-5.259q0-1.327-.064-2.417h1.486l.062,1.469h.047a2.625,2.625,0,0,1,.853-1.216,2.062,2.062,0,0,1,1.233-.411,2.738,2.738,0,0,1,.426.031Z" transform="translate(-55.425 -18.743)"/><path class="b" d="M120.45,25.34a4,4,0,0,1-.062.774h-5.117a2.227,2.227,0,0,0,.742,1.738,2.535,2.535,0,0,0,1.674.537,5.659,5.659,0,0,0,2.07-.363l.267,1.184a6.4,6.4,0,0,1-2.574.474,3.728,3.728,0,0,1-2.8-1.05,3.879,3.879,0,0,1-1.018-2.819,4.4,4.4,0,0,1,.949-2.89,3.269,3.269,0,0,1,2.684-1.231,2.861,2.861,0,0,1,2.513,1.231A4.152,4.152,0,0,1,120.45,25.34Zm-1.626-.442a2.317,2.317,0,0,0-.331-1.311,1.49,1.49,0,0,0-1.359-.711,1.618,1.618,0,0,0-1.358.7,2.545,2.545,0,0,0-.5,1.326h3.553Z" transform="translate(-56.654 -18.739)"/></g><g transform="translate(34.941 5.245)"><path class="b" d="M47.975,9.376a2.626,2.626,0,0,1-.846,2.126,3.367,3.367,0,0,1-2.226.659,10.323,10.323,0,0,1-1.226-.062V6.955a9.05,9.05,0,0,1,1.444-.109,3.113,3.113,0,0,1,2.072.6A2.415,2.415,0,0,1,47.975,9.376Zm-.884.023a1.912,1.912,0,0,0-.485-1.4,1.911,1.911,0,0,0-1.417-.489,3.548,3.548,0,0,0-.675.054v3.911a4.427,4.427,0,0,0,.566.023,1.983,1.983,0,0,0,1.486-.535A2.143,2.143,0,0,0,47.091,9.4Z" transform="translate(-43.676 -6.614)"/><path class="b" d="M53.986,10.554a2.069,2.069,0,0,1-.5,1.428,1.773,1.773,0,0,1-1.382.574,1.685,1.685,0,0,1-1.323-.551,2.007,2.007,0,0,1-.492-1.389A2.048,2.048,0,0,1,50.8,9.181a1.762,1.762,0,0,1,1.37-.558,1.725,1.725,0,0,1,1.335.55A1.991,1.991,0,0,1,53.986,10.554Zm-.87.027a1.706,1.706,0,0,0-.225-.9.828.828,0,0,0-.752-.451.841.841,0,0,0-.769.451,1.728,1.728,0,0,0-.225.91,1.706,1.706,0,0,0,.225.9.846.846,0,0,0,.761.451.837.837,0,0,0,.752-.459A1.7,1.7,0,0,0,53.116,10.581Z" transform="translate(-44.999 -6.969)"/><path class="b" d="M61.4,8.719l-1.18,3.771h-.768l-.489-1.638a12.257,12.257,0,0,1-.3-1.218h-.015a8.92,8.92,0,0,1-.3,1.218l-.519,1.638h-.777l-1.11-3.771H56.8l.426,1.793q.155.636.256,1.21h.015q.094-.473.311-1.2l.535-1.8h.683l.513,1.762q.186.644.3,1.242h.023a11.863,11.863,0,0,1,.256-1.242l.458-1.762H61.4Z" transform="translate(-46.128 -6.989)"/><path class="b" d="M67.372,12.47h-.838V10.31q0-1-.76-1a.757.757,0,0,0-.606.274.974.974,0,0,0-.233.646V12.47H64.1V9.777q0-.5-.03-1.079H64.8l.039.59h.023a1.211,1.211,0,0,1,.434-.455,1.417,1.417,0,0,1,.76-.212,1.2,1.2,0,0,1,.878.342,1.66,1.66,0,0,1,.434,1.25Z" transform="translate(-47.754 -6.969)"/><path class="b" d="M70.879,12.058h-.838v-5.5h.838Z" transform="translate(-48.949 -6.556)"/><path class="b" d="M76.335,10.554a2.068,2.068,0,0,1-.5,1.428,1.774,1.774,0,0,1-1.382.574,1.683,1.683,0,0,1-1.323-.551,2.007,2.007,0,0,1-.492-1.389,2.048,2.048,0,0,1,.508-1.435,1.761,1.761,0,0,1,1.369-.558,1.726,1.726,0,0,1,1.336.55A1.991,1.991,0,0,1,76.335,10.554Zm-.87.027a1.706,1.706,0,0,0-.225-.9.827.827,0,0,0-.751-.451.839.839,0,0,0-.769.451,1.728,1.728,0,0,0-.225.91,1.706,1.706,0,0,0,.225.9.846.846,0,0,0,.761.451.835.835,0,0,0,.751-.459A1.688,1.688,0,0,0,75.464,10.581Z" transform="translate(-49.469 -6.969)"/><path class="b" d="M81.556,12.471H80.8l-.062-.434h-.023a1.291,1.291,0,0,1-1.1.52,1.137,1.137,0,0,1-.861-.342,1.071,1.071,0,0,1-.3-.768,1.172,1.172,0,0,1,.578-1.055,3,3,0,0,1,1.626-.357v-.07q0-.745-.783-.745A1.754,1.754,0,0,0,78.9,9.5l-.17-.55a2.418,2.418,0,0,1,1.294-.326q1.478,0,1.48,1.56v1.389A5.89,5.89,0,0,0,81.556,12.471Zm-.87-1.3v-.582q-1.387-.024-1.387.76a.568.568,0,0,0,.161.442.586.586,0,0,0,.41.147.847.847,0,0,0,.513-.174.716.716,0,0,0,.3-.594Z" transform="translate(-50.633 -6.969)"/><path class="b" d="M87.385,12.058h-.744l-.039-.606h-.023a1.253,1.253,0,0,1-1.211.691,1.419,1.419,0,0,1-1.133-.535,2.085,2.085,0,0,1-.45-1.389,2.186,2.186,0,0,1,.489-1.482,1.5,1.5,0,0,1,1.164-.528,1.13,1.13,0,0,1,1.062.512h.016V6.556h.839v4.486Q87.355,11.592,87.385,12.058Zm-.869-1.59V9.838a1.234,1.234,0,0,0-.023-.264.955.955,0,0,0-.3-.508.824.824,0,0,0-.561-.206.86.86,0,0,0-.738.373,1.6,1.6,0,0,0-.269.954,1.489,1.489,0,0,0,.258.908.863.863,0,0,0,.733.372.808.808,0,0,0,.662-.31A1.033,1.033,0,0,0,86.516,10.467Z" transform="translate(-51.698 -6.556)"/><path class="b" d="M96.325,10.554a2.068,2.068,0,0,1-.5,1.428,1.772,1.772,0,0,1-1.382.574,1.688,1.688,0,0,1-1.323-.551,2.007,2.007,0,0,1-.492-1.389,2.048,2.048,0,0,1,.508-1.435,1.763,1.763,0,0,1,1.37-.558,1.723,1.723,0,0,1,1.334.55A1.991,1.991,0,0,1,96.325,10.554Zm-.869.027a1.706,1.706,0,0,0-.225-.9.829.829,0,0,0-.753-.451.843.843,0,0,0-.769.451,1.728,1.728,0,0,0-.225.91,1.706,1.706,0,0,0,.225.9.857.857,0,0,0,1.514-.008A1.7,1.7,0,0,0,95.456,10.581Z" transform="translate(-53.467 -6.969)"/><path class="b" d="M102.057,12.47h-.838V10.31q0-1-.761-1a.754.754,0,0,0-.6.274.97.97,0,0,0-.233.646V12.47h-.839V9.777q0-.5-.03-1.079h.736l.039.59h.023a1.224,1.224,0,0,1,.434-.455,1.42,1.42,0,0,1,.761-.212,1.2,1.2,0,0,1,.877.342,1.657,1.657,0,0,1,.434,1.25Z" transform="translate(-54.691 -6.969)"/><path class="b" d="M109.362,9.112h-.923v1.832c0,.466.164.7.489.7a1.476,1.476,0,0,0,.374-.039l.022.636a1.884,1.884,0,0,1-.651.094,1,1,0,0,1-.775-.3,1.479,1.479,0,0,1-.28-1.017v-1.9h-.551V8.484h.551V7.793l.822-.248v.938h.923v.629Z" transform="translate(-56.354 -6.754)"/><path class="b" d="M114.665,12.058h-.839V9.914q0-1.014-.759-1.014a.8.8,0,0,0-.8.588,1.054,1.054,0,0,0-.039.3v2.268h-.838v-5.5h.838V8.829h.016a1.267,1.267,0,0,1,1.133-.62,1.168,1.168,0,0,1,.862.342,1.717,1.717,0,0,1,.426,1.265Z" transform="translate(-57.219 -6.556)"/><path class="b" d="M120.369,10.405a2.024,2.024,0,0,1-.031.38h-2.514a1.1,1.1,0,0,0,.364.854,1.249,1.249,0,0,0,.823.264,2.778,2.778,0,0,0,1.017-.178l.131.582a3.158,3.158,0,0,1-1.266.233,1.828,1.828,0,0,1-1.377-.516,1.9,1.9,0,0,1-.5-1.385,2.158,2.158,0,0,1,.466-1.42,1.6,1.6,0,0,1,1.318-.6,1.4,1.4,0,0,1,1.233.6A2.013,2.013,0,0,1,120.369,10.405Zm-.8-.217a1.129,1.129,0,0,0-.162-.644.732.732,0,0,0-.667-.35.8.8,0,0,0-.667.342,1.269,1.269,0,0,0-.249.652h1.746Z" transform="translate(-58.344 -6.968)"/></g></svg>