<svg xmlns="http://www.w3.org/2000/svg" xmlns:xlink="http://www.w3.org/1999/xlink" width="167.785" height="60.984" viewBox="0 0 167.785 60.984"><defs><style>.a{fill:none;}.b{fill:#fff;}.c{fill:#585f71;font-size:9px;font-family:Montserrat-SemiBold, Montserrat;font-weight:600;letter-spacing:0.03em;}.d{filter:url(#a);}</style><filter id="a" x="0" y="0" width="167.785" height="60.984" filterUnits="userSpaceOnUse"><feOffset dy="3" input="SourceAlpha"/><feGaussianBlur stdDeviation="3" result="b"/><feFlood flood-opacity="0.161"/><feComposite operator="in" in2="b"/><feComposite in="SourceGraphic"/></filter></defs><g transform="translate(7.999 4.999)"><path class="a" d="M146.472,45H5.32A5.332,5.332,0,0,1,0,39.675V5.317A5.325,5.325,0,0,1,5.32,0H146.472a5.4,5.4,0,0,1,5.4,5.317V39.675a5.4,5.4,0,0,1-5.4,5.325Z"/><g class="d" transform="matrix(1, 0, 0, 1, -8, -5)"><path d="M150.675,39.565a4.309,4.309,0,0,1-4.313,4.309H5.209A4.314,4.314,0,0,1,.89,39.565V5.2A4.32,4.32,0,0,1,5.209.89H146.36A4.313,4.313,0,0,1,150.674,5.2V39.565Z" transform="translate(8.11 5.11)"/></g><g transform="translate(14.391 6.994)"><path class="b" d="M32.3,20.711A6.521,6.521,0,0,1,35.4,15.239a6.679,6.679,0,0,0-5.261-2.844c-2.213-.233-4.359,1.324-5.487,1.324-1.15,0-2.886-1.3-4.757-1.263a7,7,0,0,0-5.9,3.6c-2.549,4.413-.648,10.9,1.794,14.466,1.222,1.747,2.649,3.7,4.518,3.629,1.828-.075,2.511-1.166,4.717-1.166,2.186,0,2.827,1.166,4.733,1.122,1.962-.031,3.2-1.755,4.376-3.518a14.436,14.436,0,0,0,2-4.076A6.3,6.3,0,0,1,32.3,20.711Z" transform="translate(-12.792 -5.448)"/><path class="b" d="M27.406,10.817a6.419,6.419,0,0,0,1.469-4.6A6.539,6.539,0,0,0,24.647,8.4a6.109,6.109,0,0,0-1.507,4.43A5.4,5.4,0,0,0,27.406,10.817Z" transform="translate(-11.503 -6.217)"/></g><g transform="translate(47.711 20.251)"><path class="b" d="M55.049,33.168H52.494l-1.4-4.4H46.23l-1.333,4.4H42.41L47.229,18.2h2.977Zm-4.376-6.243-1.266-3.909q-.2-.6-.755-2.82h-.045q-.221.955-.711,2.82l-1.243,3.909Z" transform="translate(-42.41 -17.977)"/><path class="b" d="M65.817,27.2a6.135,6.135,0,0,1-1.488,4.353,4.352,4.352,0,0,1-3.31,1.422,3.31,3.31,0,0,1-3.066-1.532h-.045v5.687h-2.4V25.486q0-1.731-.089-3.554H57.53l.134,1.711h.045a4.268,4.268,0,0,1,6.83-.423A5.948,5.948,0,0,1,65.817,27.2Zm-2.443.088a4.444,4.444,0,0,0-.711-2.6,2.456,2.456,0,0,0-2.088-1.066,2.494,2.494,0,0,0-1.61.588,2.729,2.729,0,0,0-.944,1.545,3.14,3.14,0,0,0-.111.731v1.8a2.884,2.884,0,0,0,.722,1.989,2.394,2.394,0,0,0,1.876.811,2.456,2.456,0,0,0,2.109-1.044A4.6,4.6,0,0,0,63.374,27.285Z" transform="translate(-40.784 -17.537)"/><path class="b" d="M76.854,27.2a6.13,6.13,0,0,1-1.489,4.353,4.348,4.348,0,0,1-3.309,1.422,3.307,3.307,0,0,1-3.064-1.532h-.045v5.687h-2.4V25.486q0-1.731-.089-3.554h2.109l.134,1.711h.045a4.269,4.269,0,0,1,6.831-.423A5.964,5.964,0,0,1,76.854,27.2Zm-2.443.088a4.445,4.445,0,0,0-.712-2.6,2.452,2.452,0,0,0-2.087-1.066A2.5,2.5,0,0,0,70,24.209a2.727,2.727,0,0,0-.943,1.545,3.2,3.2,0,0,0-.111.731v1.8a2.893,2.893,0,0,0,.72,1.989,2.4,2.4,0,0,0,1.879.811,2.455,2.455,0,0,0,2.109-1.044A4.6,4.6,0,0,0,74.41,27.285Z" transform="translate(-39.404 -17.537)"/><path class="b" d="M89.071,28.993a3.99,3.99,0,0,1-1.33,3.11,5.894,5.894,0,0,1-4.078,1.311,7.139,7.139,0,0,1-3.88-.933l.556-2a6.575,6.575,0,0,0,3.467.956,3.278,3.278,0,0,0,2.112-.612,2,2,0,0,0,.754-1.636,2.085,2.085,0,0,0-.622-1.535A5.783,5.783,0,0,0,83.984,26.5q-3.932-1.466-3.931-4.293a3.8,3.8,0,0,1,1.378-3.025A5.433,5.433,0,0,1,85.1,18a7.267,7.267,0,0,1,3.4.711l-.6,1.955a5.9,5.9,0,0,0-2.865-.688,2.9,2.9,0,0,0-1.975.622,1.778,1.778,0,0,0-.6,1.356,1.83,1.83,0,0,0,.687,1.466,7.769,7.769,0,0,0,2.178,1.155,7.389,7.389,0,0,1,2.843,1.82A3.8,3.8,0,0,1,89.071,28.993Z" transform="translate(-37.738 -18.001)"/><path class="b" d="M95.818,24.007H93.175v5.241q0,2,1.4,2a4.266,4.266,0,0,0,1.065-.111l.066,1.821a5.434,5.434,0,0,1-1.865.265,2.878,2.878,0,0,1-2.222-.866,4.255,4.255,0,0,1-.8-2.91V24H89.244V22.2h1.575V20.228l2.356-.711V22.2h2.644v1.8Z" transform="translate(-36.556 -17.812)"/><path class="b" d="M106.866,27.241a5.922,5.922,0,0,1-1.422,4.087,5.077,5.077,0,0,1-3.955,1.644A4.827,4.827,0,0,1,97.7,31.4a5.74,5.74,0,0,1-1.411-3.976,5.864,5.864,0,0,1,1.455-4.109,5.034,5.034,0,0,1,3.92-1.6,4.93,4.93,0,0,1,3.821,1.577A5.675,5.675,0,0,1,106.866,27.241Zm-2.489.078a4.856,4.856,0,0,0-.644-2.562,2.369,2.369,0,0,0-2.153-1.292,2.4,2.4,0,0,0-2.2,1.292,4.949,4.949,0,0,0-.643,2.607,4.849,4.849,0,0,0,.643,2.56,2.451,2.451,0,0,0,4.331-.022A4.873,4.873,0,0,0,104.377,27.319Z" transform="translate(-35.675 -17.537)"/><path class="b" d="M113.263,24.042a4.165,4.165,0,0,0-.756-.066,2.266,2.266,0,0,0-1.955.956,3.594,3.594,0,0,0-.6,2.132v5.664h-2.4l.022-7.4q0-1.866-.09-3.4h2.089L109.664,24h.066a3.692,3.692,0,0,1,1.2-1.71,2.9,2.9,0,0,1,1.734-.578,3.851,3.851,0,0,1,.6.044v2.287Z" transform="translate(-34.275 -17.537)"/><path class="b" d="M123.222,26.822a5.625,5.625,0,0,1-.088,1.088h-7.2a3.132,3.132,0,0,0,1.044,2.445,3.564,3.564,0,0,0,2.354.755,7.958,7.958,0,0,0,2.911-.511l.376,1.665a9,9,0,0,1-3.619.667,5.243,5.243,0,0,1-3.944-1.477,5.456,5.456,0,0,1-1.432-3.965,6.185,6.185,0,0,1,1.334-4.065,4.6,4.6,0,0,1,3.774-1.731,4.023,4.023,0,0,1,3.534,1.731A5.839,5.839,0,0,1,123.222,26.822Zm-2.287-.622a3.258,3.258,0,0,0-.466-1.844,2.1,2.1,0,0,0-1.911-1,2.275,2.275,0,0,0-1.909.978,3.579,3.579,0,0,0-.71,1.865h5Z" transform="translate(-33.508 -17.539)"/></g><text class="c" transform="translate(47.25 13.5)"><tspan x="0" y="0">Coming soon</tspan></text></g></svg>