<svg xmlns="http://www.w3.org/2000/svg" width="19" height="19" viewBox="0 0 19 19">
  <defs>
    <style>
      .cls-1, .cls-2 {
        fill: none;
      }

      .cls-3, .cls-4 {
        stroke: none;
      }

      .cls-4 {
        fill: #f5d800;
      }
    </style>
  </defs>
  <g id="menu" transform="translate(-1230 -36)">
    <rect id="Rectangle_135" data-name="Rectangle 135" class="cls-1" width="19" height="19" transform="translate(1230 36)"/>
    <g id="Polygon_1" data-name="Polygon 1" class="cls-2" transform="translate(1245.702 52) rotate(180)">
      <path class="cls-3" d="M5.485,1.5a1,1,0,0,1,1.732,0l4.619,8A1,1,0,0,1,10.97,11H1.732A1,1,0,0,1,.866,9.5Z"/>
      <path class="cls-4" d="M 6.350852489471436 1.999996185302734 L 1.732052803039551 9.999996185302734 L 10.96965217590332 9.999996185302734 L 6.350862503051758 1.999996185302734 C 6.35085916519165 1.999996185302734 6.350855827331543 1.999996185302734 6.350852489471436 1.999996185302734 M 6.350856304168701 1.000001907348633 C 6.687644958496094 1.000001907348633 7.02443265914917 1.166666984558105 7.216882705688477 1.499996185302734 L 11.83568286895752 9.499996185302734 C 12.22058296203613 10.16666603088379 11.73945236206055 10.99999618530273 10.96965217590332 10.99999618530273 L 1.732052803039551 10.99999618530273 C 0.9622526168823242 10.99999618530273 0.4811220169067383 10.16666603088379 0.8660221099853516 9.499996185302734 L 5.484822273254395 1.499996185302734 C 5.677277565002441 1.166666984558105 6.014067649841309 1.000001907348633 6.350856304168701 1.000001907348633 Z"/>
    </g>
    <g id="Polygon_2" data-name="Polygon 2" class="cls-2" transform="translate(1245.702 52) rotate(180)">
      <path class="cls-3" d="M5.485,1.5a1,1,0,0,1,1.732,0l4.619,8A1,1,0,0,1,10.97,11H1.732A1,1,0,0,1,.866,9.5Z"/>
      <path class="cls-4" d="M 6.350852489471436 1.999996185302734 L 1.732052803039551 9.999996185302734 L 10.96965217590332 9.999996185302734 L 6.350862503051758 1.999996185302734 C 6.35085916519165 1.999996185302734 6.350855827331543 1.999996185302734 6.350852489471436 1.999996185302734 M 6.350856304168701 1.000001907348633 C 6.687644958496094 1.000001907348633 7.02443265914917 1.166666984558105 7.216882705688477 1.499996185302734 L 11.83568286895752 9.499996185302734 C 12.22058296203613 10.16666603088379 11.73945236206055 10.99999618530273 10.96965217590332 10.99999618530273 L 1.732052803039551 10.99999618530273 C 0.9622526168823242 10.99999618530273 0.4811220169067383 10.16666603088379 0.8660221099853516 9.499996185302734 L 5.484822273254395 1.499996185302734 C 5.677277565002441 1.166666984558105 6.014067649841309 1.000001907348633 6.350856304168701 1.000001907348633 Z"/>
    </g>
  </g>
</svg>
