<svg xmlns="http://www.w3.org/2000/svg" width="28.007" height="24" viewBox="0 0 28.007 24"><defs><style>.a{fill:#585e75;}</style></defs><path class="a" d="M52.005,87.643a.318.318,0,0,0-.263-.269l-1.394-.119a2.172,2.172,0,0,1-1.394-1.769l-.075-.481H43.128l-.075.475a2.183,2.183,0,0,1-1.394,1.769l-1.394.119a.341.341,0,0,0-.263.269.321.321,0,0,0,.319.363H51.686A.316.316,0,0,0,52.005,87.643Zm7.558-23.206A1.51,1.51,0,0,0,58.5,64H33.513a1.5,1.5,0,0,0-1.063.438A1.523,1.523,0,0,0,32,65.5v17a1.511,1.511,0,0,0,.45,1.063,1.481,1.481,0,0,0,1.05.438H58.507a1.47,1.47,0,0,0,1.05-.438,1.523,1.523,0,0,0,.45-1.063v-17A1.49,1.49,0,0,0,59.563,64.438ZM46,82.5a.5.5,0,1,1,.5-.5A.5.5,0,0,1,46,82.5ZM58.751,80H33.263a.251.251,0,0,1-.25-.25v-14a.752.752,0,0,1,.75-.75H58.25a.752.752,0,0,1,.75.75v14A.251.251,0,0,1,58.751,80Z" transform="translate(-32 -64)"/></svg>