<svg xmlns="http://www.w3.org/2000/svg" width="24" height="24" viewBox="0 0 24 24"><defs><style>.a,.b{fill:none;}.a{opacity:0;}.c,.d{stroke:none;}.d{fill:#f5d800;}</style></defs><rect class="a" width="24" height="24" transform="translate(0 24) rotate(-90)"/><g class="b" transform="translate(19 18) rotate(180)"><path class="c" d="M5.662,1.29a1,1,0,0,1,1.677,0L12,8.455A1,1,0,0,1,11.157,10H1.843A1,1,0,0,1,1,8.455L4.558,2.988Z"/><path class="d" d="M 6.499871253967285 1.835103988647461 L 5.396230697631836 3.533005714416504 L 1.842690467834473 8.999996185302734 L 11.15730762481689 8.999996185302734 C 11.15730857849121 8.999994277954102 11.15730953216553 8.999992370605469 11.15732002258301 9.000005722045898 L 6.499871253967285 1.835103988647461 M 6.500000476837158 0.8349056243896484 C 6.820635318756104 0.8349056243896484 7.141270637512207 0.9865760803222656 7.338440418243408 1.289916038513184 L 11.99575996398926 8.455015182495117 C 12.4281702041626 9.120265960693359 11.95075035095215 9.999995231628418 11.15731048583984 9.999995231628418 L 1.842690467834473 9.999995231628418 C 1.049250602722168 9.999995231628418 0.5718307495117188 9.120265960693359 1.004240036010742 8.455015182495117 L 4.557790756225586 2.988015651702881 L 5.661560535430908 1.289916038513184 C 5.858730316162109 0.9865760803222656 6.179365634918213 0.8349056243896484 6.500000476837158 0.8349056243896484 Z"/></g></svg>