<svg xmlns="http://www.w3.org/2000/svg" width="96" height="90" viewBox="0 0 96 90"><defs><style>.a{fill:#585f71;}</style></defs><g transform="translate(0 -32.211)"><g transform="translate(0 32.211)"><g transform="translate(0 0)"><path class="a" d="M7.691,70.632A1.852,1.852,0,0,0,9.27,70.59l15.607-7.607a2.223,2.223,0,0,0,.939-2.871,1.916,1.916,0,0,0-2.578-1.029L12.307,64.418C17.523,47.682,32.051,36.5,48.777,36.5,66.3,36.5,81.63,49.054,86.046,67.032a1.993,1.993,0,0,0,2.438,1.521A2.166,2.166,0,0,0,89.9,65.939C85.027,46.1,68.121,32.211,48.777,32.211c-18.445,0-34.492,12.343-40.287,30.814L3.894,50.7a1.984,1.984,0,0,0-2.518-1.371A2.192,2.192,0,0,0,.1,52.032a1.373,1.373,0,0,0,.1.257L6.572,69.432A2.065,2.065,0,0,0,7.691,70.632Z" transform="translate(0 -32.211)"/><path class="a" d="M122.108,306.84a.319.319,0,0,1-.04-.129l-6.375-17.143a2.065,2.065,0,0,0-1.119-1.2,1.933,1.933,0,0,0-1.579.043l-15.607,7.607a2.21,2.21,0,0,0-1.079,2.807,1.961,1.961,0,0,0,2.618,1.157l.12-.064,10.931-5.336c-5.256,16.736-19.8,27.922-36.51,27.922-17.526,0-32.853-12.557-37.269-30.536a1.993,1.993,0,0,0-2.438-1.521,2.166,2.166,0,0,0-1.419,2.614C37.2,312.926,54.124,326.79,73.468,326.79c18.445,0,34.472-12.343,40.287-30.814l4.6,12.321a1.96,1.96,0,0,0,2.558,1.286A2.183,2.183,0,0,0,122.108,306.84Z" transform="translate(-26.229 -236.79)"/></g></g></g></svg>