<svg xmlns="http://www.w3.org/2000/svg" xmlns:xlink="http://www.w3.org/1999/xlink" width="46" height="46" viewBox="0 0 46 46"><defs><style>.a{fill:#616161;}.b{fill:#9e9e9e;}.c{fill:#424242;}.d{fill:rgba(33,33,33,0.1);}.e{fill:rgba(255,255,255,0.05);}.f,.g{fill:#bdbdbd;}.f{opacity:0.5;}.h{fill:#757575;}.i{fill:rgba(255,255,255,0.2);}.j{fill:rgba(33,33,33,0.2);}.k{fill:url(#a);}</style><radialGradient id="a" cx="0.274" cy="0.704" r="0" gradientUnits="objectBoundingBox"><stop offset="0" stop-color="#fff" stop-opacity="0.102"/><stop offset="1" stop-color="#fff" stop-opacity="0"/></radialGradient></defs><g transform="translate(-27 -27)"><circle class="a" cx="23" cy="23" r="23" transform="translate(27 27)"/><path class="b" d="M50,64.636A14.636,14.636,0,1,1,60.349,39.651l5.914-5.914a23,23,0,1,0,0,32.528l-5.914-5.914A14.61,14.61,0,0,1,50,64.636Z"/><path class="c" d="M895.055,880.419h-7.319a7.318,7.318,0,1,0-12.592,5.071l-.006.006,9.061,9.061,0,0a14.64,14.64,0,0,0,10.853-14.139Z" transform="translate(-830.419 -830.419)"/><path class="a" d="M1491.315,1268h-8.364a14.643,14.643,0,0,1-10.851,14.139l6.459,6.459A23,23,0,0,0,1491.315,1268Z" transform="translate(-1418.317 -1218)"/><path class="d" d="M50,1283.769A23,23,0,0,1,27,1260.9c0,.044,0,.087,0,.132a23,23,0,0,0,46,0c0-.044,0-.087,0-.132a23,23,0,0,1-23,22.869Z" transform="translate(0 -1211.032)"/><path class="e" d="M1472.2,1282.139l.2.2a14.638,14.638,0,0,0,10.647-14.082V1268a14.642,14.642,0,0,1-10.851,14.139Z" transform="translate(-1418.415 -1218)"/><g transform="translate(47.909 47.909)"><path class="b" d="M939.609,918.7H920.791a2.091,2.091,0,0,0,0,4.181h18.817a2.091,2.091,0,0,0,0-4.181Z" transform="translate(-918.7 -918.7)"/><path class="f" d="M939.609,918.7H920.791a2.091,2.091,0,0,0,0,4.181h18.817a2.091,2.091,0,0,0,0-4.181Z" transform="translate(-918.7 -918.7)"/></g><g transform="translate(27 27)"><g transform="translate(2.613 2.613)"><circle class="g" cx="1.568" cy="1.568" r="1.568" transform="translate(0 18.819)"/><circle class="g" cx="1.568" cy="1.568" r="1.568" transform="translate(18.819)"/><circle class="g" cx="1.568" cy="1.568" r="1.568" transform="translate(18.819 37.636)"/><circle class="g" cx="1.568" cy="1.568" r="1.568" transform="translate(5.49 5.512)"/><circle class="g" cx="1.568" cy="1.568" r="1.568" transform="translate(5.49 32.148)"/></g><circle class="h" cx="1.568" cy="1.568" r="1.568" transform="translate(34.761 34.761)"/><path class="i" d="M1157.291,1155.461h18.817a2.087,2.087,0,0,1,2.083,1.961c0-.045.008-.087.008-.132a2.091,2.091,0,0,0-2.09-2.091h-18.817a2.091,2.091,0,0,0-2.091,2.091,1.035,1.035,0,0,0,.007.132A2.086,2.086,0,0,1,1157.291,1155.461Z" transform="translate(-1134.291 -1134.291)"/><path class="j" d="M1178.191,1275a2.092,2.092,0,0,1-2.083,1.961h-18.817a2.087,2.087,0,0,1-2.083-1.961,1.023,1.023,0,0,0-.007.13,2.09,2.09,0,0,0,2.091,2.091h18.817a2.09,2.09,0,0,0,2.09-2.091A1.024,1.024,0,0,0,1178.191,1275Z" transform="translate(-1134.291 -1251.87)"/><path class="d" d="M492.936,392.29a14.6,14.6,0,0,1,10.349,4.287l6.042-6.046-.13-.132-5.912,5.914A14.636,14.636,0,0,0,478.3,406.663c0,.045,0,.087,0,.132a14.634,14.634,0,0,1,14.634-14.5Z" transform="translate(-469.936 -383.665)"/><circle class="k" cx="23" cy="23" r="23"/></g></g></svg>