<svg xmlns="http://www.w3.org/2000/svg" xmlns:xlink="http://www.w3.org/1999/xlink" width="108" height="32" viewBox="0 0 108 32"><defs><style>.a{fill:#a6a6a6;}.b,.c,.j{fill:#fff;}.b{stroke:#fff;stroke-miterlimit:10;stroke-width:0.2px;}.d{fill:url(#a);}.e{fill:url(#b);}.f{fill:url(#c);}.g{fill:url(#d);}.h{opacity:0.2;}.i{opacity:0.12;}.j{opacity:0.25;}</style><linearGradient id="a" x1="0.908" y1="1.032" x2="-0.383" y2="0.36" gradientUnits="objectBoundingBox"><stop offset="0" stop-color="#00a0ff"/><stop offset="0.007" stop-color="#00a1ff"/><stop offset="0.26" stop-color="#00beff"/><stop offset="0.512" stop-color="#00d2ff"/><stop offset="0.76" stop-color="#00dfff"/><stop offset="1" stop-color="#00e3ff"/></linearGradient><linearGradient id="b" x1="1.077" y1="0.729" x2="-1.307" y2="0.729" gradientUnits="objectBoundingBox"><stop offset="0" stop-color="#ffe000"/><stop offset="0.409" stop-color="#ffbd00"/><stop offset="0.775" stop-color="orange"/><stop offset="1" stop-color="#ff9c00"/></linearGradient><linearGradient id="c" x1="0.864" y1="-0.023" x2="-0.499" y2="-1.789" gradientUnits="objectBoundingBox"><stop offset="0" stop-color="#ff3a44"/><stop offset="1" stop-color="#c31162"/></linearGradient><linearGradient id="d" x1="-0.186" y1="2.701" x2="0.423" y2="1.909" gradientUnits="objectBoundingBox"><stop offset="0" stop-color="#32a071"/><stop offset="0.069" stop-color="#2da771"/><stop offset="0.476" stop-color="#15cf74"/><stop offset="0.801" stop-color="#06e775"/><stop offset="1" stop-color="#00f076"/></linearGradient></defs><path d="M104,32H4a3.961,3.961,0,0,1-4-4V4A3.961,3.961,0,0,1,4,0H104a3.961,3.961,0,0,1,4,4V28A3.961,3.961,0,0,1,104,32Z"/><path class="a" d="M104,.64A3.38,3.38,0,0,1,107.36,4V28A3.38,3.38,0,0,1,104,31.36H4A3.38,3.38,0,0,1,.64,28V4A3.38,3.38,0,0,1,4,.64H104M104,0H4A4.012,4.012,0,0,0,0,4V28a3.961,3.961,0,0,0,4,4H104a3.961,3.961,0,0,0,4-4V4A4.012,4.012,0,0,0,104,0Z"/><path class="b" d="M46.2,9.54a2.179,2.179,0,0,1-.56,1.6A2.48,2.48,0,0,1,41.4,9.38,2.459,2.459,0,0,1,43.88,6.9a2.13,2.13,0,0,1,.96.24,1.742,1.742,0,0,1,.72.56l-.4.4a1.492,1.492,0,0,0-1.28-.56,1.592,1.592,0,0,0-1.28.56,1.648,1.648,0,0,0-.56,1.36,1.648,1.648,0,0,0,.56,1.36,2.06,2.06,0,0,0,1.28.56,1.755,1.755,0,0,0,1.36-.56,1.325,1.325,0,0,0,.4-.96H43.88V9.22H46.2v.32Zm3.68-2H47.72V9.06h2v.56h-2v1.52h2.16v.64h-2.8V6.98h2.8Zm2.64,4.24h-.64V7.54H50.52V6.98h3.36v.56H52.52Zm3.68,0V6.98h.64v4.8Zm3.36,0h-.64V7.54H57.56V6.98h3.28v.56H59.48v4.24Zm7.6-.64a2.48,2.48,0,0,1-4.24-1.76,2.48,2.48,0,1,1,4.96,0A2.352,2.352,0,0,1,67.16,11.14Zm-3.04-.4a1.888,1.888,0,0,0,1.28.56,1.592,1.592,0,0,0,1.28-.56,1.93,1.93,0,0,0,.56-1.36,1.648,1.648,0,0,0-.56-1.36,1.888,1.888,0,0,0-1.28-.56,1.592,1.592,0,0,0-1.28.56,1.93,1.93,0,0,0-.56,1.36A1.648,1.648,0,0,0,64.12,10.74Zm4.64,1.04V6.98h.72l2.32,3.76V6.98h.64v4.8H71.8L69.32,7.86v3.92h-.56Z" transform="translate(-8.28 -1.38)"/><path class="c" d="M62.7,20.86a3.366,3.366,0,0,0-3.44,3.44,3.415,3.415,0,0,0,3.44,3.44,3.366,3.366,0,0,0,3.44-3.44A3.319,3.319,0,0,0,62.7,20.86Zm0,5.44a2.087,2.087,0,0,1,0-4.16,1.938,1.938,0,0,1,1.92,2.08A1.986,1.986,0,0,1,62.7,26.3Zm-7.44-5.44a3.366,3.366,0,0,0-3.44,3.44,3.415,3.415,0,0,0,3.44,3.44A3.366,3.366,0,0,0,58.7,24.3,3.319,3.319,0,0,0,55.26,20.86Zm0,5.44a2.087,2.087,0,0,1,0-4.16,1.938,1.938,0,0,1,1.92,2.08A1.986,1.986,0,0,1,55.26,26.3Zm-8.88-4.4v1.44h3.44a3.025,3.025,0,0,1-.8,1.84,3.541,3.541,0,0,1-2.64,1.04,3.725,3.725,0,0,1-3.76-3.84,3.774,3.774,0,0,1,3.76-3.84,3.967,3.967,0,0,1,2.64,1.04l1.04-1.04a5.126,5.126,0,0,0-3.6-1.44,5.4,5.4,0,0,0-5.36,5.28,5.4,5.4,0,0,0,5.36,5.28,4.6,4.6,0,0,0,3.68-1.52,4.816,4.816,0,0,0,1.28-3.36,3,3,0,0,0-.08-.88H46.38ZM82.7,23.02a3.108,3.108,0,0,0-2.88-2.16,3.222,3.222,0,0,0-3.2,3.44,3.348,3.348,0,0,0,3.36,3.44,3.282,3.282,0,0,0,2.8-1.52l-1.12-.8a1.95,1.95,0,0,1-1.68.96,1.736,1.736,0,0,1-1.68-1.04l4.56-1.92-.16-.4Zm-4.64,1.12a1.943,1.943,0,0,1,1.76-2,1.415,1.415,0,0,1,1.28.72l-3.04,1.28ZM74.3,27.42h1.52v-10H74.3Zm-2.4-5.84a2.634,2.634,0,0,0-1.84-.8,3.437,3.437,0,0,0-3.28,3.44,3.313,3.313,0,0,0,3.28,3.36,2.3,2.3,0,0,0,1.76-.8h.08v.48a1.819,1.819,0,0,1-3.52.8l-1.28.56a3.3,3.3,0,0,0,3.04,2c1.76,0,3.2-1.04,3.2-3.52V21.02H71.9v.56ZM70.14,26.3a2.087,2.087,0,0,1,0-4.16,1.925,1.925,0,0,1,1.84,2.08A1.925,1.925,0,0,1,70.14,26.3Zm19.52-8.88h-3.6v10h1.52V23.66h2.08a3.124,3.124,0,1,0,0-6.24Zm.08,4.8H87.58V18.78h2.16a1.757,1.757,0,0,1,1.76,1.68A1.831,1.831,0,0,1,89.74,22.22Zm9.2-1.44A2.689,2.689,0,0,0,96.3,22.3l1.36.56a1.413,1.413,0,0,1,1.36-.72,1.5,1.5,0,0,1,1.6,1.28v.08a3.173,3.173,0,0,0-1.52-.4c-1.44,0-2.88.8-2.88,2.24a2.344,2.344,0,0,0,2.48,2.24,2.251,2.251,0,0,0,1.92-.96h.08v.8h1.44V23.58a3.028,3.028,0,0,0-3.2-2.8Zm-.16,5.52c-.48,0-1.2-.24-1.2-.88,0-.8.88-1.04,1.6-1.04a3.094,3.094,0,0,1,1.36.32A1.863,1.863,0,0,1,98.78,26.3Zm8.4-5.28-1.68,4.32h-.08l-1.76-4.32h-1.6l2.64,6.08-1.52,3.36h1.52l4.08-9.44h-1.6Zm-13.44,6.4h1.52v-10H93.74Z" transform="translate(-8.22 -3.42)"/><g transform="translate(8 5.718)"><path class="d" d="M10.32,7.5A1.564,1.564,0,0,0,10,8.62V26.3a1.583,1.583,0,0,0,.4,1.12l.08.08,9.92-9.92v-.16Z" transform="translate(-10 -7.218)"/><path class="e" d="M26.18,22.6,22.9,19.32v-.24l3.28-3.28.08.08,3.92,2.24a1.221,1.221,0,0,1,0,2.32Z" transform="translate(-12.58 -8.878)"/><path class="f" d="M23.76,23.36,20.4,20l-10,10c.4.4.96.4,1.68.08l11.68-6.72" transform="translate(-10.08 -9.718)"/><path class="g" d="M23.76,14.074,12.08,7.434a1.3,1.3,0,0,0-1.68.08l10,9.92,3.36-3.36Z" transform="translate(-10.08 -7.152)"/><path class="h" d="M23.68,24.1l-11.6,6.56a1.308,1.308,0,0,1-1.6,0l-.08.08.08.08a1.308,1.308,0,0,0,1.6,0Z" transform="translate(-10.08 -10.538)"/><path class="i" d="M10.32,29.84A1.564,1.564,0,0,1,10,28.72v.08a1.583,1.583,0,0,0,.4,1.12v-.08h-.08Zm17.28-8.8-4,2.24.08.08,3.92-2.24A1.33,1.33,0,0,0,28.4,20C28.4,20.4,28.08,20.72,27.6,21.04Z" transform="translate(-10 -9.718)"/><path class="j" d="M12,7.509l15.6,8.88c.48.32.8.64.8,1.04a1.33,1.33,0,0,0-.8-1.12L12,7.429c-1.12-.64-2-.16-2,1.12v.08C10,7.429,10.88,6.869,12,7.509Z" transform="translate(-10 -7.147)"/></g></svg>