<svg xmlns="http://www.w3.org/2000/svg" xmlns:xlink="http://www.w3.org/1999/xlink" width="170.501" height="63" viewBox="0 0 170.501 63"><defs><style>.a,.b,.c,.d,.e,.f,.g,.h,.i,.j{fill-rule:evenodd;}.b{fill:none;}.c,.j{fill:#fff;}.d{fill:url(#c);}.e{fill:url(#d);}.f{fill:url(#e);}.g{fill:url(#f);}.h{opacity:0.2;}.i{opacity:0.12;}.j{opacity:0.25;}.k{fill:#585f71;font-size:7px;font-family:Montserrat-SemiBold, Montserrat;font-weight:600;letter-spacing:0.03em;}.l{filter:url(#a);}</style><filter id="a" x="0" y="0" width="170.501" height="63" filterUnits="userSpaceOnUse"><feOffset dy="3" input="SourceAlpha"/><feGaussianBlur stdDeviation="3" result="b"/><feFlood flood-opacity="0.161"/><feComposite operator="in" in2="b"/><feComposite in="SourceGraphic"/></filter><linearGradient id="c" x1="2.472" y1="1.035" x2="2.361" y2="1.005" gradientUnits="objectBoundingBox"><stop offset="0" stop-color="#00a0ff"/><stop offset="0.007" stop-color="#00a1ff"/><stop offset="0.26" stop-color="#00beff"/><stop offset="0.512" stop-color="#00d2ff"/><stop offset="0.76" stop-color="#00dfff"/><stop offset="1" stop-color="#00e3ff"/></linearGradient><linearGradient id="d" x1="1.95" y1="1.879" x2="1.69" y2="1.879" gradientUnits="objectBoundingBox"><stop offset="0" stop-color="#ffe000"/><stop offset="0.409" stop-color="#ffbd00"/><stop offset="0.775" stop-color="orange"/><stop offset="1" stop-color="#ff9c00"/></linearGradient><linearGradient id="e" x1="1.926" y1="0.946" x2="1.835" y2="0.793" gradientUnits="objectBoundingBox"><stop offset="0" stop-color="#ff3a44"/><stop offset="1" stop-color="#c31162"/></linearGradient><linearGradient id="f" x1="1.856" y1="2.093" x2="1.897" y2="2.025" gradientUnits="objectBoundingBox"><stop offset="0" stop-color="#32a071"/><stop offset="0.068" stop-color="#2da771"/><stop offset="0.476" stop-color="#15cf74"/><stop offset="0.801" stop-color="#06e775"/><stop offset="1" stop-color="#00f076"/></linearGradient></defs><g transform="translate(9 6)"><g class="l" transform="matrix(1, 0, 0, 1, -9, -6)"><path class="a" d="M146.85,45H5.65A5.653,5.653,0,0,1,0,39.375V5.625A5.646,5.646,0,0,1,5.65,0h141.2a5.648,5.648,0,0,1,5.65,5.625v33.75A5.655,5.655,0,0,1,146.85,45Z" transform="translate(9 6)"/></g><path class="b" d="M146.85.9a4.75,4.75,0,0,1,4.75,4.724v33.75a4.741,4.741,0,0,1-4.75,4.724H5.65A4.75,4.75,0,0,1,.9,39.375V5.625A4.741,4.741,0,0,1,5.65.9Zm0-.9H5.65A5.653,5.653,0,0,0,0,5.625v33.75A5.646,5.646,0,0,0,5.65,45h141.2a5.648,5.648,0,0,0,5.65-5.625V5.625A5.655,5.655,0,0,0,146.85,0Z"/><path class="c" d="M1677.151,688.314a4.786,4.786,0,1,0,4.8,4.786A4.711,4.711,0,0,0,1677.151,688.314Zm0,7.676a2.908,2.908,0,1,1,2.7-2.9A2.769,2.769,0,0,1,1677.151,695.989Zm-10.473-7.676a4.786,4.786,0,1,0,4.8,4.786A4.711,4.711,0,0,0,1666.678,688.314Zm0,7.676a2.908,2.908,0,1,1,2.7-2.9A2.77,2.77,0,0,1,1666.678,695.989Zm-12.462-6.214V691.8h4.862a4.269,4.269,0,0,1-1.1,2.55,4.96,4.96,0,0,1-3.751,1.487,5.4,5.4,0,0,1,0-10.8,5.19,5.19,0,0,1,3.661,1.45l1.436-1.436a7.064,7.064,0,0,0-5.086-2.051,7.427,7.427,0,1,0,0,14.852,6.8,6.8,0,0,0,5.187-2.087,6.721,6.721,0,0,0,1.762-4.75,6.259,6.259,0,0,0-.112-1.262h-6.862S1654.216,689.775,1654.216,689.775Zm50.973,1.577a4.448,4.448,0,0,0-4.1-3.05,4.547,4.547,0,0,0-4.511,4.786,4.678,4.678,0,0,0,4.75,4.786,4.75,4.75,0,0,0,3.987-2.124l-1.625-1.089a2.721,2.721,0,0,1-2.351,1.324,2.445,2.445,0,0,1-2.326-1.451l6.4-2.651S1705.189,691.352,1705.189,691.352Zm-6.526,1.6a2.627,2.627,0,0,1,2.5-2.789,1.845,1.845,0,0,1,1.776,1.013Zm-5.2,4.637h2.1V683.527h-2.1Zm-3.451-8.212h-.076a3.315,3.315,0,0,0-2.525-1.075,4.786,4.786,0,0,0,0,9.564,3.306,3.306,0,0,0,2.525-1.089h.076v.687c0,1.826-.976,2.811-2.55,2.811a2.653,2.653,0,0,1-2.412-1.7l-1.826.763a4.568,4.568,0,0,0,4.236,2.825c2.464,0,4.551-1.45,4.551-4.988v-8.588h-1.986v.788Zm-2.413,6.612a2.91,2.91,0,0,1,0-5.8,2.691,2.691,0,0,1,2.55,2.912A2.657,2.657,0,0,1,1687.6,695.989Zm27.426-12.462H1710v14.061h2.1v-5.325h2.926a4.375,4.375,0,1,0,0-8.736Zm.062,6.772H1712.1v-4.825h2.988a2.413,2.413,0,1,1,0,4.825Zm12.975-2.012a3.957,3.957,0,0,0-3.751,2.149l1.863.774a2,2,0,0,1,1.913-1.038,2.029,2.029,0,0,1,2.213,1.812v.149a4.707,4.707,0,0,0-2.188-.539c-2.011,0-4.051,1.1-4.051,3.162a3.25,3.25,0,0,0,3.487,3.1,2.957,2.957,0,0,0,2.673-1.375h.076v1.089h2.026v-5.386C1732.326,689.677,1730.463,688.288,1728.065,688.288Zm-.263,7.7c-.688,0-1.65-.337-1.65-1.2,0-1.089,1.2-1.5,2.225-1.5a3.647,3.647,0,0,1,1.913.474A2.529,2.529,0,0,1,1727.8,695.989Zm11.915-7.4-2.413,6.1h-.076l-2.5-6.1h-2.261l3.751,8.526-2.138,4.739h2.188l5.771-13.264Zm-18.915,9h2.1V683.527h-2.1Z" transform="translate(-1600.502 -663.839)"/><path class="d" d="M400.613,299.476a2.279,2.279,0,0,0-.513,1.588V325.94a2.169,2.169,0,0,0,.525,1.574l.087.076,13.938-13.938v-.311L400.7,299.4Z" transform="translate(-388.875 -291)"/><path class="e" d="M922.949,640.123l-4.649-4.649v-.325l4.649-4.649.1.062,5.5,3.125c1.574.887,1.574,2.351,0,3.249l-5.5,3.125Z" transform="translate(-892.537 -612.811)"/><path class="f" d="M437.174,806.75l-4.75-4.75L418.4,816.025a1.841,1.841,0,0,0,2.337.076l16.437-9.351" transform="translate(-406.662 -779.5)"/><path class="g" d="M437.174,296.194l-16.437-9.337a1.823,1.823,0,0,0-2.337.076l14.025,14.011Z" transform="translate(-406.662 -278.443)"/><path class="h" d="M437.462,967.7l-16.325,9.275a1.852,1.852,0,0,1-2.25.011l-.087.087.087.076a1.857,1.857,0,0,0,2.25-.011l16.437-9.337Z" transform="translate(-407.051 -940.551)"/><path class="i" d="M1089.114,803.462l-5.614,3.187.1.1,5.5-3.125a1.97,1.97,0,0,0,1.176-1.624A2.023,2.023,0,0,1,1089.114,803.462Z" transform="translate(-1053.103 -779.5)"/><path class="j" d="M402.95,286.85l21.936,12.462a2.067,2.067,0,0,1,1.176,1.462,1.97,1.97,0,0,0-1.176-1.624L402.95,286.687c-1.574-.9-2.85-.149-2.85,1.65v.163C400.1,286.7,401.376,285.961,402.95,286.85Z" transform="translate(-388.875 -278.274)"/><text class="k" transform="translate(45.947 10.402)"><tspan x="0" y="0">Coming soon</tspan></text></g></svg>