<svg xmlns="http://www.w3.org/2000/svg" width="1077.29" height="674.064" viewBox="0 0 1077.29 674.064"><defs><style>.a{fill:#fbbebe;}.b{fill:#3390d1;}.c{fill:#3c354c;}.d{opacity:0.1;}.e{fill:none;stroke:#585f73;stroke-miterlimit:10;}.f{fill:#00a05c;}.g{fill:#3f3d56;}</style></defs><g transform="translate(90.001)"><path class="a" d="M330.435,503.164s23.127,1.542,27.238-1.542,21.585,4.111,23.127,8.223-24.668,4.625-28.78,4.625-23.641,6.167-23.641,6.167Z" transform="translate(-238.855 -112.731)"/><path class="b" d="M389.077,451.551a56.628,56.628,0,0,0-37.317,78.332l51.525-23.506Z" transform="translate(-238.855 -112.731)"/><path class="b" d="M415.444,515.149,363.92,538.654a56.637,56.637,0,1,0,37.317-78.332Z" transform="translate(-238.855 -112.731)"/><path class="c" d="M327.837,560.752l-8.2,77.755s-2.57,30.836-10.279,37.517c0,0,0,9.765-2.57,12.848l-3.6,40.6s5.139,14.9,4.625,17.474,2.056,10.792,1.542,11.82-24.668,0-24.668,0l5.139-82.742L305.766,560.9Z" transform="translate(-238.855 -112.731)"/><path class="d" d="M327.837,560.752l-8.2,77.755s-2.57,30.836-10.279,37.517c0,0,0,9.765-2.57,12.848l-3.6,40.6s5.139,14.9,4.625,17.474,2.056,10.792,1.542,11.82-24.668,0-24.668,0l5.139-82.742L305.766,560.9Z" transform="translate(-238.855 -112.731)"/><line class="e" y1="0.564" x2="484.5" transform="translate(-90 673)"/><path class="e" d="M500.365,725.763s211-123,483,0" transform="translate(-63.855 -112.731)"/><path class="e" d="M542.82,706.456a38.155,38.155,0,0,1-30.455-37.367V151.373a38.142,38.142,0,0,1,38.142-38.142H933.223a38.142,38.142,0,0,1,38.142,38.142V669.089a38.147,38.147,0,0,1-34.031,37.923" transform="translate(-63.855 -112.731)"/><rect class="e" width="408" height="471.059" transform="translate(472.009 61.971)"/><circle class="e" cx="10" cy="10" r="10" transform="translate(668.009 21)"/><path class="e" d="M720.408,671.349a22.006,22.006,0,0,1,42.99.356" transform="translate(-63.855 -112.731)"/><path class="e" d="M490.245,208.688a22.982,22.982,0,0,0-19.81,13.851c-4.954,11.974,1.424,26.039,11,34.77s21.874,13.722,33.048,20.282c15.01,8.811,28.5,21.043,36.007,36.744s8.309,35.15-.519,50.15c-8.194,13.922-23.093,22.255-37.3,29.94" transform="translate(-63.855 -112.731)"/><ellipse class="f" cx="17.5" cy="8.5" rx="17.5" ry="8.5" transform="translate(421.509 88.5)"/><ellipse class="f" cx="17.5" cy="8.5" rx="17.5" ry="8.5" transform="translate(435.509 144.5)"/><ellipse class="f" cx="17.5" cy="8.5" rx="17.5" ry="8.5" transform="translate(403.509 153.5)"/><ellipse class="f" cx="17.5" cy="8.5" rx="17.5" ry="8.5" transform="translate(453.509 200.5)"/><ellipse class="f" cx="17.5" cy="8.5" rx="17.5" ry="8.5" transform="translate(488.509 200.5)"/><path class="e" d="M960.708,552.054a21.4,21.4,0,0,0-18.447,12.9c-4.613,11.15,1.326,24.247,10.242,32.378s20.369,12.778,30.774,18.887c13.977,8.205,26.536,19.595,33.529,34.216s7.737,32.732-.483,46.7c-7.63,12.964-21.5,20.724-34.736,27.88" transform="translate(-63.855 -112.731)"/><ellipse class="f" cx="16.296" cy="7.915" rx="16.296" ry="7.915" transform="translate(892.307 432.378)"/><ellipse class="f" cx="16.296" cy="7.915" rx="16.296" ry="7.915" transform="translate(905.344 484.525)"/><ellipse class="f" cx="16.296" cy="7.915" rx="16.296" ry="7.915" transform="translate(875.546 492.906)"/><ellipse class="f" cx="16.296" cy="7.915" rx="16.296" ry="7.915" transform="translate(922.106 536.672)"/><ellipse class="f" cx="16.296" cy="7.915" rx="16.296" ry="7.915" transform="translate(954.697 536.672)"/><path class="e" d="M1000.221,584.033a17.477,17.477,0,0,1,15.065,10.533c3.767,9.106-1.083,19.8-8.365,26.442s-16.634,10.435-25.132,15.424c-11.414,6.7-21.671,16-27.382,27.943s-6.319,26.731.395,38.138c6.231,10.588,17.561,16.924,28.367,22.768" transform="translate(-63.855 -112.731)"/><ellipse class="f" cx="13.308" cy="6.464" rx="13.308" ry="6.464" transform="translate(913.461 465.631)"/><ellipse class="f" cx="13.308" cy="6.464" rx="13.308" ry="6.464" transform="translate(902.814 508.217)"/><ellipse class="f" cx="13.308" cy="6.464" rx="13.308" ry="6.464" transform="translate(927.149 515.062)"/><ellipse class="f" cx="13.308" cy="6.464" rx="13.308" ry="6.464" transform="translate(889.126 550.804)"/><ellipse class="f" cx="13.308" cy="6.464" rx="13.308" ry="6.464" transform="translate(862.509 550.804)"/><path class="e" d="M455.509,161.032v226h265" transform="translate(85)"/><rect class="b" width="22" height="58" transform="translate(574.509 312.032)"/><rect class="b" width="22" height="78" transform="translate(619.509 292.032)"/><rect class="b" width="22" height="102" transform="translate(664.509 268.032)"/><rect class="b" width="22" height="145" transform="translate(709.509 225.032)"/><rect class="b" width="22" height="179" transform="translate(754.509 191.032)"/><rect class="e" width="22" height="58" transform="translate(567.509 305.032)"/><rect class="e" width="22" height="78" transform="translate(612.509 285.032)"/><rect class="e" width="22" height="102" transform="translate(657.509 261.032)"/><rect class="e" width="22" height="145" transform="translate(702.509 218.032)"/><rect class="e" width="22" height="179" transform="translate(747.509 184.032)"/><ellipse class="g" cx="25.696" cy="20.043" rx="25.696" ry="20.043" transform="translate(61.514 232.401)"/><path class="g" d="M282.812,754.562s-10.778,27.179-5.155,30.459,64.668.937,64.668.937,9.841-6.092-1.406-10.309c0,0-9.372-.469-15.464-4.217s-13.121-10.778-13.121-10.778-.469-10.309-4.217-7.966a9.63,9.63,0,0,0-4.217,6.56Z" transform="translate(-238.855 -112.731)"/><path class="d" d="M282.812,754.562s-10.778,27.179-5.155,30.459,64.668.937,64.668.937,9.841-6.092-1.406-10.309c0,0-9.372-.469-15.464-4.217s-13.121-10.778-13.121-10.778-.469-10.309-4.217-7.966a9.63,9.63,0,0,0-4.217,6.56Z" transform="translate(-238.855 -112.731)"/><path class="g" d="M266.194,750.876s-11.82,29.808-5.653,33.405,70.922,1.028,70.922,1.028,10.792-6.681-1.542-11.306c0,0-10.279-.514-16.96-4.625s-14.39-11.82-14.39-11.82-.514-11.306-4.625-8.737a10.562,10.562,0,0,0-4.625,7.2Z" transform="translate(-238.855 -112.731)"/><path class="c" d="M313.989,559.7s-5.653,52.934-8.223,64.241a146.167,146.167,0,0,0-3.084,22.613s-.514,16.446-5.139,21.071a13.891,13.891,0,0,0-4.111,10.279s-4.625,51.906-2.056,58.074,6.058,14.179,3.488,18.291-31.754,1.239-31.754-1.845,0-5.653-1.542-7.2,0-11.306,0-11.306-6.167-45.739-.514-59.1,8.223-49.851,8.223-49.851-4.111-41.628-9.251-48.309,1.028-30.322,1.028-30.322Z" transform="translate(-238.855 -112.731)"/><path class="a" d="M299.52,395.312c.6,1.361,2.027,2.119,3.329,2.836,7.545,4.157,13.861,10.184,20.084,16.141a23.578,23.578,0,0,1,.936-15.945c.743-1.721,1.717-3.57,1.186-5.367a6.682,6.682,0,0,0-2.606-3.118,80.8,80.8,0,0,0-7.948-5.422c-1.924-1.151-5.881-4.216-8.089-3.882-.116,2.984-.176,5.651-1.483,8.44C304.619,389.656,299.748,395.832,299.52,395.312Z" transform="translate(-238.855 -112.731)"/><circle class="a" cx="21.071" cy="21.071" r="21.071" transform="translate(65.883 247.048)"/><path class="g" d="M326.837,430.7s3.6-17.987-6.681-24.155-22.1-13.362-22.1-13.362-3.6-.514-5.139,7.2c0,0-29.294,5.653-32.377,33.405s2.056,68.352,2.056,68.352-4.625,35.461-10.279,54.476c0,0-4.625,4.111,15.932-2.056s56.532,17.473,56.532,17.473,3.6-3.6,3.6-6.167,4.111-17.473,4.111-17.473,3.6-63.213,5.139-70.408S331.462,431.728,326.837,430.7Z" transform="translate(-238.855 -112.731)"/><path class="g" d="M320.843,383.02a8.787,8.787,0,0,1,4.133-1.1,7.864,7.864,0,0,0,4.088-1.218c1.99-1.528,2.136-4.481,3.592-6.525,2.108-2.959,6.314-3.315,9.943-3.167,2.22.091,4.611.223,6.481-.978,1.919-1.233,2.789-3.555,3.436-5.743.765-2.587,1.26-5.75-.636-7.668-1.317-1.332-3.4-1.6-4.859-2.766-1.517-1.213-2.141-3.187-2.966-4.946a13.366,13.366,0,0,0-4.3-5.391c-2.76-1.917-6.285-2.347-9.645-2.312s-6.735.478-10.07.065c-2.732-.338-5.457-1.247-8.181-.844-3.471.513-6.342,3.132-8.052,6.2s-2.444,6.56-3.155,10l-1.935,9.344c-.6,2.9-1.2,5.873-.74,8.8.96,6.059,6.319,10.876,6.688,17a10.436,10.436,0,0,1,6.37-7.574,1.993,1.993,0,0,1,1.3-.158c.532.17.844.7,1.18,1.149.88,1.17,3.646,2.946,5.214,2.116C320.127,386.548,319.08,384.216,320.843,383.02Z" transform="translate(-238.855 -112.731)"/><path class="a" d="M267.736,479.01s-3.6,22.613,11.306,20.557c0,0,7.709-1.028,8.737,0s39.058-5.653,44.2-11.306c0,0,6.167-2.056,9.251,1.028s33.919,6.167,24.668-3.084S342.255,474.9,342.255,474.9l-19.529,1.028s-10.279,3.084-16.446,0-23.641-2.056-23.641-2.056Z" transform="translate(-238.855 -112.731)"/><path class="g" d="M288.807,407.574s-23.127,2.57-23.127,35.975V486.2s12.848-5.653,15.418-5.139,12.848-6.681,12.848-6.681,11.82-27.752,10.792-35.461S304.224,408.6,288.807,407.574Z" transform="translate(-238.855 -112.731)"/><ellipse class="g" cx="19.786" cy="10.279" rx="19.786" ry="10.279" transform="translate(67.168 244.735)"/><ellipse class="g" cx="6.938" cy="17.217" rx="6.938" ry="17.217" transform="translate(61.514 239.596)"/></g></svg>