<svg xmlns="http://www.w3.org/2000/svg" width="18" height="24" viewBox="0 0 18 24"><defs><style>.a{fill:#fdfefd;}</style></defs><path class="a" d="M214.151,280.941l-.315,2.836a.5.5,0,0,0,.5.555h2a.5.5,0,0,0,.5-.555l-.315-2.836a1.978,1.978,0,0,0,.818-1.608,2,2,0,0,0-4,0A1.978,1.978,0,0,0,214.151,280.941Zm1.182-2.608a1,1,0,0,1,.432,1.9.5.5,0,0,0-.279.505l.289,2.6h-.883l.289-2.6a.5.5,0,0,0-.279-.505,1,1,0,0,1,.432-1.9Z" transform="translate(-206.333 -264.333)"/><path class="a" d="M81.5,9H80V7A7,7,0,1,0,66,7V9H64.5a.5.5,0,0,0-.5.5V22a2,2,0,0,0,2,2H80a2,2,0,0,0,2-2V9.5A.5.5,0,0,0,81.5,9ZM67,7A6,6,0,1,1,79,7V9H78V7A5,5,0,0,0,68,7V9H67ZM77,7V9H69V7a4,4,0,0,1,8,0Zm4,15a1,1,0,0,1-1,1H66a1,1,0,0,1-1-1V10H81Z" transform="translate(-64)"/></svg>