<svg xmlns="http://www.w3.org/2000/svg" width="577.157" height="191.7" viewBox="0 0 577.157 191.7">
  <defs>
    <style>
      .cls-1 {
        fill: #fdfefd;
      }
    </style>
  </defs>
  <g id="logo-big" transform="translate(686.595 -9150.9)">
    <path id="Path_401" data-name="Path 401" class="cls-1" d="M67.734,1.278A61.215,61.215,0,0,1,37.488-6.177a54.063,54.063,0,0,1-20.98-20.554A58.348,58.348,0,0,1,8.946-56.445a58.348,58.348,0,0,1,7.561-29.714,53.318,53.318,0,0,1,20.98-20.448,61.923,61.923,0,0,1,30.246-7.348,61.316,61.316,0,0,1,30.14,7.348,53.511,53.511,0,0,1,20.874,20.448,58.348,58.348,0,0,1,7.562,29.714,58.348,58.348,0,0,1-7.562,29.713A54.265,54.265,0,0,1,97.874-6.177,60.616,60.616,0,0,1,67.734,1.278Zm0-17.892a38.116,38.116,0,0,0,19.49-5.005,35.331,35.331,0,0,0,13.525-14.058,42.942,42.942,0,0,0,4.9-20.767,42.942,42.942,0,0,0-4.9-20.768A34.6,34.6,0,0,0,87.224-91.164a38.764,38.764,0,0,0-19.49-4.9,38.764,38.764,0,0,0-19.49,4.9A35.317,35.317,0,0,0,34.612-77.213a42.2,42.2,0,0,0-5.005,20.768,42.2,42.2,0,0,0,5.005,20.767A36.069,36.069,0,0,0,48.244-21.619,38.116,38.116,0,0,0,67.734-16.614ZM249.21-112.89,194.469,11.289q-7.242,17.253-16.934,24.282T154.212,42.6a49.294,49.294,0,0,1-16.081-2.663,33.01,33.01,0,0,1-12.886-7.775l8.733-15.336a28.471,28.471,0,0,0,20.235,8.307,19.522,19.522,0,0,0,12.46-3.941q5.006-3.941,9.053-13.526l3.621-7.881L129.5-112.89h21.3l39.4,90.312,38.979-90.312Zm54.528-1.065q23.43,0,35.891,11.5t12.46,34.293V0H332.706V-14.91a32.319,32.319,0,0,1-14.59,12.034q-9.479,4.154-22.471,4.153-18.957,0-30.353-9.159T253.9-31.95q0-14.91,10.863-23.962t34.506-9.053h32.376v-4.047q0-13.206-7.668-20.235T301.4-96.276a59.774,59.774,0,0,0-19.6,3.3,50.482,50.482,0,0,0-16.188,8.84l-8.52-15.336a61.825,61.825,0,0,1,20.874-10.756A87.344,87.344,0,0,1,303.738-113.955Zm-4.686,99.471q11.715,0,20.235-5.218a29.862,29.862,0,0,0,12.354-14.8V-50.268H300.117q-25.986,0-25.986,17.466a15.8,15.8,0,0,0,6.6,13.419Q287.337-14.484,299.052-14.484Z" transform="translate(-579.831 9300)"/>
    <path id="Path_400" data-name="Path 400" class="cls-1" d="M22.365-149.1h21.3V-18.531h80.727V0H22.365Z" transform="translate(-233.831 9300)"/>
    <path id="Path_402" data-name="Path 402" class="cls-1" d="M22.365-3.9h21.3V-134.469h80.727V-153H22.365Z" transform="translate(-562.203 9148) rotate(180)"/>
  </g>
</svg>
