<svg xmlns="http://www.w3.org/2000/svg" width="133.232" height="44.1" viewBox="0 0 133.232 44.1">
  <defs>
    <style>
      .cls-1 {
        fill: #fdfefd;
      }
    </style>
  </defs>
  <g id="logo-small" transform="translate(689.616 -9106.7)">
    <path id="Path_402" data-name="Path 402" class="cls-1" d="M5.145-34.3h4.9V-4.263H28.616V0H5.145Z" transform="translate(-585 9141)"/>
    <path id="Path_401" data-name="Path 401" class="cls-1" d="M15.582.294A14.082,14.082,0,0,1,8.624-1.421,12.437,12.437,0,0,1,3.8-6.149a13.423,13.423,0,0,1-1.74-6.835A13.423,13.423,0,0,1,3.8-19.82a12.266,12.266,0,0,1,4.826-4.7,14.245,14.245,0,0,1,6.958-1.691,14.105,14.105,0,0,1,6.934,1.691,12.31,12.31,0,0,1,4.8,4.7,13.423,13.423,0,0,1,1.739,6.835,13.423,13.423,0,0,1-1.739,6.835,12.484,12.484,0,0,1-4.8,4.728A13.945,13.945,0,0,1,15.582.294Zm0-4.116a8.768,8.768,0,0,0,4.484-1.151,8.128,8.128,0,0,0,3.111-3.234A9.879,9.879,0,0,0,24.3-12.985a9.879,9.879,0,0,0-1.127-4.778,7.96,7.96,0,0,0-3.111-3.209A8.918,8.918,0,0,0,15.582-22.1,8.918,8.918,0,0,0,11.1-20.972a8.125,8.125,0,0,0-3.136,3.209,9.709,9.709,0,0,0-1.151,4.778A9.709,9.709,0,0,0,7.962-8.208,8.3,8.3,0,0,0,11.1-4.973,8.768,8.768,0,0,0,15.582-3.822ZM57.33-25.97,44.737,2.6a12.883,12.883,0,0,1-3.9,5.586A8.892,8.892,0,0,1,35.476,9.8a11.34,11.34,0,0,1-3.7-.613A7.594,7.594,0,0,1,28.812,7.4l2.009-3.528a6.55,6.55,0,0,0,4.655,1.911,4.491,4.491,0,0,0,2.867-.906,7.731,7.731,0,0,0,2.083-3.112l.833-1.813L29.792-25.97h4.9L43.757-5.194,52.724-25.97Zm12.544-.245q5.39,0,8.257,2.646T81-15.68V0H76.538V-3.43A7.435,7.435,0,0,1,73.182-.662a12.81,12.81,0,0,1-5.17.956,10.819,10.819,0,0,1-6.983-2.107A6.759,6.759,0,0,1,58.408-7.35a6.819,6.819,0,0,1,2.5-5.512q2.5-2.083,7.938-2.083h7.448v-.931a6,6,0,0,0-1.764-4.655,7.441,7.441,0,0,0-5.194-1.617,13.751,13.751,0,0,0-4.508.759A11.613,11.613,0,0,0,61.1-19.355l-1.96-3.528a14.223,14.223,0,0,1,4.8-2.475A20.093,20.093,0,0,1,69.874-26.215ZM68.8-3.332a8.738,8.738,0,0,0,4.655-1.2,6.87,6.87,0,0,0,2.842-3.405v-3.626H69.041q-5.978,0-5.978,4.018a3.636,3.636,0,0,0,1.519,3.087A6.945,6.945,0,0,0,68.8-3.332Z" transform="translate(-665 9141)"/>
    <path id="Path_400" data-name="Path 400" class="cls-1" d="M5.145-.7h4.9V-30.737H28.616V-35H5.145Z" transform="translate(-661 9106) rotate(180)"/>
  </g>
</svg>
