<svg xmlns="http://www.w3.org/2000/svg" width="24.001" height="15.999" viewBox="0 0 24.001 15.999">
  <defs>
    <style>
      .cls-1 {
        fill: #fdfefd;
      }
    </style>
  </defs>
  <g id="menu" transform="translate(0 -80)">
    <g id="Group_160" data-name="Group 160" transform="translate(0 86.667)">
      <g id="Group_159" data-name="Group 159">
        <path id="Path_388" data-name="Path 388" class="cls-1" d="M23.063,236H.937C.42,236,0,236.6,0,237.333s.42,1.333.937,1.333H23.063c.518,0,.938-.6.938-1.333S23.58,236,23.063,236Z" transform="translate(0 -236)"/>
      </g>
    </g>
    <g id="Group_162" data-name="Group 162" transform="translate(0 80)">
      <g id="Group_161" data-name="Group 161">
        <path id="Path_389" data-name="Path 389" class="cls-1" d="M23.063,76H.937C.42,76,0,76.6,0,77.333s.42,1.333.937,1.333H23.063c.518,0,.938-.6.938-1.333S23.58,76,23.063,76Z" transform="translate(0 -76)"/>
      </g>
    </g>
    <g id="Group_164" data-name="Group 164" transform="translate(0 93.333)">
      <g id="Group_163" data-name="Group 163">
        <path id="Path_390" data-name="Path 390" class="cls-1" d="M23.063,396H.937C.42,396,0,396.6,0,397.333s.42,1.333.937,1.333H23.063c.518,0,.938-.6.938-1.333S23.58,396,23.063,396Z" transform="translate(0 -396)"/>
      </g>
    </g>
  </g>
</svg>
