<svg xmlns="http://www.w3.org/2000/svg" width="13.994" height="28" viewBox="0 0 13.994 28"><defs><style>.a{fill:#585e75;}</style></defs><path class="a" d="M155.981,32h-9.912A2.057,2.057,0,0,0,144,34.056V57.869A2.117,2.117,0,0,0,146.069,60h9.906a2.076,2.076,0,0,0,2.019-2.131V34.056A2.005,2.005,0,0,0,155.981,32Zm-5.919,1.438h1.875a.25.25,0,0,1,0,.5h-1.875a.25.25,0,0,1,0-.5Zm.969,25.625a1.087,1.087,0,1,1,1.087-1.088A1.088,1.088,0,0,1,151.031,59.063ZM156.875,56h-11.75a.125.125,0,0,1-.125-.125V35.313a.125.125,0,0,1,.125-.125h11.75a.125.125,0,0,1,.125.125V55.875A.125.125,0,0,1,156.875,56Z" transform="translate(-144 -32)"/></svg>