<svg id="Layer_2" data-name="Layer 2" xmlns="http://www.w3.org/2000/svg" width="24" height="24" viewBox="0 0 24 24">
  <defs>
    <style>
      .cls-1, .cls-2 {
        fill: #3e92cc;
      }

      .cls-1 {
        opacity: 0;
      }
    </style>
  </defs>
  <g id="plus-square">
    <rect id="Rectangle_38" data-name="Rectangle 38" class="cls-1" width="24" height="24"/>
    <path id="Path_54" data-name="Path 54" class="cls-2" d="M18,3H6A3,3,0,0,0,3,6V18a3,3,0,0,0,3,3H18a3,3,0,0,0,3-3V6A3,3,0,0,0,18,3Zm1,15a1,1,0,0,1-1,1H6a1,1,0,0,1-1-1V6A1,1,0,0,1,6,5H18a1,1,0,0,1,1,1Z"/>
    <path id="Path_55" data-name="Path 55" class="cls-2" d="M15,11H13V9a1,1,0,0,0-2,0v2H9a1,1,0,0,0,0,2h2v2a1,1,0,0,0,2,0V13h2a1,1,0,0,0,0-2Z"/>
  </g>
</svg>
