<svg xmlns="http://www.w3.org/2000/svg" width="132" height="132" viewBox="0 0 132 132"><defs><style>.a{fill:#24272b;}</style></defs><path class="a" d="M66,15.469V25.781H55.688V15.469ZM55.688,76.055v14.7H66v-14.7ZM86.625,132V121.688H76.313V111.375H66V132ZM107.25,55.43H76.313V65.742H107.25Zm0,20.625h14.437V65.742H107.25Zm0,14.7v10.312H132V76.055H121.688v14.7ZM76.313,0H66V15.469H76.313ZM66,46.406H76.313V25.781H66V36.094H55.688V65.742H66ZM0,55.43V76.055H10.313V65.742H25.781V55.43ZM76.313,76.055V65.742H66V76.055ZM96.938,86.367H107.25V76.055H96.938Zm24.75-20.625H132V55.43H121.688ZM86.625,76.055H76.313v14.7H66v10.312H86.625Zm-30.938,35.32H66V101.063H55.688Zm30.938-10.313v10.313H107.25V101.063Zm30.937,20.625V111.375H107.25v10.312ZM132,132V121.688H117.563V132Zm-35.062,0H107.25V121.688H96.938ZM46.406,65.742V55.43H36.094V65.742H25.781V76.055H55.688V65.742Zm0-19.336H0V0H46.406ZM36.094,10.313H10.313V36.094H36.094Zm-7.734,7.734H18.047V28.359H28.359ZM132,0V46.406H85.594V0ZM121.688,10.313H95.906V36.094h25.781Zm-7.734,7.734H103.641V28.359h10.313ZM0,85.594H46.406V132H0Zm10.313,36.094H36.094V95.906H10.313Zm7.734-7.734H28.359V103.641H18.047Zm0,0"/></svg>