<svg xmlns="http://www.w3.org/2000/svg" width="62" height="62" viewBox="0 0 62 62"><defs><style>.a{fill:#24272b;}</style></defs><path class="a" d="M31,7.266v4.844H26.156V7.266ZM26.156,35.723v6.9H31v-6.9ZM40.688,62V57.156H35.844V52.313H31V62Zm9.688-35.965H35.844v4.844H50.375Zm0,9.688h6.781V30.879H50.375Zm0,6.9v4.844H62V35.723H57.156v6.9ZM35.844,0H31V7.266h4.844ZM31,21.8h4.844V12.109H31v4.844H26.156V30.879H31ZM0,26.035v9.688H4.844V30.879h7.266V26.035Zm35.844,9.688V30.879H31v4.844Zm9.688,4.844h4.844V35.723H45.531Zm11.625-9.688H62V26.035H57.156ZM40.688,35.723H35.844v6.9H31v4.844h9.688ZM26.156,52.313H31V47.469H26.156Zm14.531-4.844v4.844h9.688V47.469Zm14.531,9.688V52.313H50.375v4.844ZM62,62V57.156H55.219V62ZM45.531,62h4.844V57.156H45.531ZM21.8,30.879V26.035H16.953v4.844H12.109v4.844H26.156V30.879Zm0-9.082H0V0H21.8ZM16.953,4.844H4.844V16.953H16.953ZM13.32,8.477H8.477V13.32H13.32ZM62,0V21.8H40.2V0ZM57.156,4.844H45.047V16.953H57.156ZM53.523,8.477H48.68V13.32h4.844ZM0,40.2H21.8V62H0ZM4.844,57.156H16.953V45.047H4.844Zm3.633-3.633H13.32V48.68H8.477Zm0,0"/></svg>