<svg xmlns="http://www.w3.org/2000/svg" width="19" height="24" viewBox="0 0 19 24"><defs><style>.a{fill:#fdfefd;}</style></defs><path class="a" d="M70.333,7a1.993,1.993,0,0,0-1.112.338,2,2,0,0,0-3-1A2,2,0,0,0,64.333,5a1.984,1.984,0,0,0-1,.269V2a2,2,0,1,0-4,0V13.691l-2.749-1.375A3.014,3.014,0,0,0,55.243,12a1.914,1.914,0,0,0-1.35,3.267l6.466,6.466A7.689,7.689,0,0,0,65.833,24a6.508,6.508,0,0,0,6.5-6.5V9A2,2,0,0,0,70.333,7Zm1,10.5a5.507,5.507,0,0,1-5.5,5.5,6.688,6.688,0,0,1-4.765-1.975L54.6,14.559A.914.914,0,0,1,55.243,13a2.012,2.012,0,0,1,.894.211l3.473,1.736a.5.5,0,0,0,.723-.447V2a1,1,0,0,1,2,0v9.5a.5.5,0,1,0,1,0V7a1,1,0,0,1,2,0v4.5a.5.5,0,0,0,1,0V8a1,1,0,1,1,2,0v3.5a.5.5,0,0,0,1,0V9a1,1,0,0,1,2,0Z" transform="translate(-53.333)"/></svg>