<svg xmlns="http://www.w3.org/2000/svg" width="180" height="180" viewBox="0 0 180 180"><defs><style>.a{fill:#24272b;}</style></defs><path class="a" d="M90,21.094V35.156H75.938V21.094ZM75.938,103.711V123.75H90V103.711ZM118.125,180V165.938H104.063V151.875H90V180ZM146.25,75.586H104.063V89.648H146.25Zm0,28.125h19.688V89.648H146.25Zm0,20.039v14.063H180v-34.1H165.938V123.75ZM104.063,0H90V21.094h14.063ZM90,63.281h14.063V35.156H90V49.219H75.938v40.43H90ZM0,75.586v28.125H14.063V89.648H35.156V75.586Zm104.063,28.125V89.648H90v14.063Zm28.125,14.063H146.25V103.711H132.188Zm33.75-28.125H180V75.586H165.938Zm-47.813,14.063H104.063V123.75H90v14.063h28.125ZM75.938,151.875H90V137.813H75.938Zm42.188-14.063v14.063H146.25V137.813Zm42.188,28.125V151.875H146.25v14.062ZM180,180V165.938H160.313V180Zm-47.812,0H146.25V165.938H132.188ZM63.281,89.648V75.586H49.219V89.648H35.156v14.063H75.938V89.648Zm0-26.367H0V0H63.281ZM49.219,14.063H14.063V49.219H49.219ZM38.672,24.609H24.609V38.672H38.672ZM180,0V63.281H116.719V0ZM165.938,14.063H130.781V49.219h35.156ZM155.391,24.609H141.328V38.672h14.063ZM0,116.719H63.281V180H0Zm14.063,49.219H49.219V130.781H14.063Zm10.547-10.547H38.672V141.328H24.609Zm0,0"/></svg>