<svg xmlns="http://www.w3.org/2000/svg" width="24.003" height="24" viewBox="0 0 24.003 24">
  <defs>
    <style>
      .cls-1 {
        fill: #fdfefd;
      }
    </style>
  </defs>
  <path id="user-circle" class="cls-1" d="M60,48A12,12,0,0,0,48.069,58.735a11.565,11.565,0,0,0,0,2.529A12,12,0,1,0,60,48Zm7.835,18.813c-1.31-.5-3.433-1.223-4.754-1.615-.138-.04-.156-.052-.156-.617a3.283,3.283,0,0,1,.381-1.344,6.705,6.705,0,0,0,.531-1.823,4.054,4.054,0,0,0,.785-1.9,2.532,2.532,0,0,0-.023-1.592,1.022,1.022,0,0,1-.035-.1,10.374,10.374,0,0,1,.179-2.238,4.122,4.122,0,0,0-.86-2.96,4.41,4.41,0,0,0-3.375-1.615H59.5a4.4,4.4,0,0,0-3.346,1.615,4.1,4.1,0,0,0-.865,2.96,10.374,10.374,0,0,1,.179,2.238c-.012.04-.023.069-.035.1a2.489,2.489,0,0,0-.023,1.592,4.116,4.116,0,0,0,.785,1.9,6.982,6.982,0,0,0,.531,1.823,3.223,3.223,0,0,1,.219,1.362c0,.571-.023.577-.15.617-1.367.4-3.4,1.119-4.615,1.6A10.384,10.384,0,1,1,67.838,66.8Z" transform="translate(-48 -48)"/>
</svg>
