<svg xmlns="http://www.w3.org/2000/svg" width="120" height="120" viewBox="0 0 120 120"><defs><style>.a{fill:#009e60;}</style></defs><path class="a" d="M102.426,17.573a60,60,0,0,0-84.853,84.853,60,60,0,1,0,84.853-84.853ZM60,112.969A52.969,52.969,0,1,1,112.969,60,53.029,53.029,0,0,1,60,112.969Z"/><g transform="translate(30.305 39.719)"><path class="a" d="M187.661,170.5a3.517,3.517,0,0,0-4.972,0l-31.045,31.045L135.3,185.2a3.516,3.516,0,0,0-4.972,4.972L149.158,209a3.515,3.515,0,0,0,4.972,0l33.531-33.531A3.516,3.516,0,0,0,187.661,170.5Z" transform="translate(-129.3 -169.467)"/></g></svg>