<svg xmlns="http://www.w3.org/2000/svg" width="24" height="24" viewBox="0 0 24 24"><defs><style>.a{fill:#e5e5e5;opacity:0.75;}</style></defs><path class="a" d="M12,2.813V4.688H10.125V2.813ZM10.125,13.828V16.5H12V13.828ZM15.75,24V22.125H13.875V20.25H12V24ZM19.5,10.078H13.875v1.875H19.5Zm0,3.75h2.625V11.953H19.5Zm0,2.672v1.875H24V13.828H22.125V16.5ZM13.875,0H12V2.813h1.875ZM12,8.438h1.875V4.688H12V6.563H10.125v5.391H12ZM0,10.078v3.75H1.875V11.953H4.688V10.078Zm13.875,3.75V11.953H12v1.875Zm3.75,1.875H19.5V13.828H17.625Zm4.5-3.75H24V10.078H22.125ZM15.75,13.828H13.875V16.5H12v1.875h3.75ZM10.125,20.25H12V18.375H10.125Zm5.625-1.875V20.25H19.5V18.375Zm5.625,3.75V20.25H19.5v1.875ZM24,24V22.125H21.375V24Zm-6.375,0H19.5V22.125H17.625ZM8.438,11.953V10.078H6.563v1.875H4.688v1.875h5.438V11.953Zm0-3.516H0V0H8.438ZM6.563,1.875H1.875V6.563H6.563ZM5.156,3.281H3.281V5.156H5.156ZM24,0V8.438H15.563V0ZM22.125,1.875H17.438V6.563h4.688ZM20.719,3.281H18.844V5.156h1.875ZM0,15.563H8.438V24H0Zm1.875,6.562H6.563V17.438H1.875Zm1.406-1.406H5.156V18.844H3.281Zm0,0"/></svg>