<svg xmlns="http://www.w3.org/2000/svg" width="96" height="90" viewBox="0 0 96 90"><defs><style>.a{fill:#585f71;}</style></defs><g transform="translate(3 -12.211)"><g transform="translate(-3 12.211)"><g transform="translate(0 0)"><path class="a" d="M91.2,34.866H89.6V25.122a4.858,4.858,0,0,0-4.8-4.911,4.684,4.684,0,0,0-.845.077L4.517,34.892H4.506A4.866,4.866,0,0,0,0,39.78V105.3a4.858,4.858,0,0,0,4.8,4.914H91.2A4.858,4.858,0,0,0,96,105.3V39.78A4.858,4.858,0,0,0,91.2,34.866ZM84.517,23.51a1.6,1.6,0,0,1,1.858,1.322,1.673,1.673,0,0,1,.025.29v9.744H22.758ZM92.8,80.728H65.6A1.619,1.619,0,0,1,64,79.09v-13.1a1.619,1.619,0,0,1,1.6-1.638H92.8Zm0-19.655H65.6a4.858,4.858,0,0,0-4.8,4.914v13.1A4.858,4.858,0,0,0,65.6,84H92.8V105.3a1.619,1.619,0,0,1-1.6,1.638H4.8A1.619,1.619,0,0,1,3.2,105.3V39.78a1.619,1.619,0,0,1,1.6-1.638H91.2a1.619,1.619,0,0,1,1.6,1.638Z" transform="translate(0 -20.211)"/><path class="a" d="M340.8,261.617A4.915,4.915,0,1,0,336,256.7,4.858,4.858,0,0,0,340.8,261.617Zm0-6.552a1.638,1.638,0,1,1-1.6,1.638A1.619,1.619,0,0,1,340.8,255.065Z" transform="translate(-268.8 -204.375)"/></g></g></g></svg>