<svg xmlns="http://www.w3.org/2000/svg" width="23.248" height="16.71" viewBox="0 0 23.248 16.71"><defs><style>.a{fill:#26a6d1;}.b{fill:#fff;}</style></defs><g transform="translate(0 -41.025)"><path class="a" d="M1.453,41.025H21.795a1.454,1.454,0,0,1,1.453,1.454v13.8a1.453,1.453,0,0,1-1.453,1.453H1.453A1.453,1.453,0,0,1,0,56.282v-13.8A1.454,1.454,0,0,1,1.453,41.025Z" transform="translate(0 0)"/><path class="b" d="M20.531,113.966l-2.3,5.08h2.748l.341-.81H22.1l.341.81h3.025v-.618l.27.618H27.3l.27-.631v.631h6.291l.765-.789.716.789,3.231.007-2.3-2.533,2.3-2.554H35.4l-.745.774-.694-.774H27.113l-.588,1.311-.6-1.311H23.181v.6l-.305-.6Zm.532.721H22.4l1.523,3.445v-3.445h1.468l1.176,2.47,1.084-2.47h1.46v3.646h-.889l-.007-2.857-1.3,2.857h-.795l-1.3-2.857v2.857H23l-.347-.817H20.778l-.346.817h-.979Zm8.863,0h3.613l1.105,1.194,1.141-1.194h1.1L35.21,116.52l1.679,1.811H35.734l-1.105-1.207-1.146,1.207H29.926v-3.643Zm-8.212.617L21.1,116.76H22.33Zm9.1.138v.665h1.971v.742H30.818v.727h2.211l1.027-1.07-.984-1.064H30.818Z" transform="translate(-16.782 -67.129)"/></g></svg>