<svg xmlns="http://www.w3.org/2000/svg" width="97" height="96.999" viewBox="0 0 97 96.999"><defs><style>.a{fill:#585f71;}</style></defs><g transform="translate(0 -0.001)"><g transform="translate(6.467 19.401)"><path class="a" d="M101.516,104.084a6.473,6.473,0,0,1-6.467-6.467A1.615,1.615,0,0,0,93.433,96H41.7a1.615,1.615,0,0,0-1.617,1.617,6.473,6.473,0,0,1-6.467,6.467A1.615,1.615,0,0,0,32,105.7v12.933a1.615,1.615,0,0,0,1.617,1.617,6.473,6.473,0,0,1,6.467,6.467,1.615,1.615,0,0,0,1.617,1.617H93.433a1.615,1.615,0,0,0,1.617-1.617,6.473,6.473,0,0,1,6.467-6.467,1.615,1.615,0,0,0,1.617-1.617V105.7A1.615,1.615,0,0,0,101.516,104.084ZM99.9,117.152a9.727,9.727,0,0,0-7.949,7.949H43.182a9.727,9.727,0,0,0-7.949-7.949v-9.968a9.727,9.727,0,0,0,7.949-7.949H91.951a9.727,9.727,0,0,0,7.949,7.949Z" transform="translate(-32 -96.001)"/></g><g transform="translate(33.95 27.484)"><path class="a" d="M176.083,136a8.083,8.083,0,1,0,8.083,8.083A8.092,8.092,0,0,0,176.083,136Zm0,12.933a4.85,4.85,0,1,1,4.85-4.85A4.856,4.856,0,0,1,176.083,148.934Z" transform="translate(-168 -136.001)"/></g><g transform="translate(0 0.001)"><path class="a" d="M95.383,0H14.55a1.615,1.615,0,0,0-1.617,1.617v4.85H8.083A1.615,1.615,0,0,0,6.467,8.084v4.85H1.617A1.615,1.615,0,0,0,0,14.551V56.584A1.615,1.615,0,0,0,1.617,58.2H82.45a1.615,1.615,0,0,0,1.617-1.617v-4.85h4.85a1.615,1.615,0,0,0,1.617-1.617v-4.85h4.85A1.615,1.615,0,0,0,97,43.651V1.618A1.615,1.615,0,0,0,95.383,0ZM80.833,50.117v4.85H3.233v-38.8h77.6ZM87.3,48.5H84.066V14.551a1.615,1.615,0,0,0-1.617-1.617H9.7V9.7H87.3Zm6.467-6.467H90.533V8.084a1.615,1.615,0,0,0-1.617-1.617H16.167V3.234h77.6Z" transform="translate(0 -0.001)"/></g><g transform="translate(46.883 63.049)"><path class="a" d="M281.47,326.871l-19.4-14.552a1.616,1.616,0,0,0-2.587,1.293v6.467H233.617A1.615,1.615,0,0,0,232,321.7V334.63a1.615,1.615,0,0,0,1.617,1.617h25.867v8.083a1.616,1.616,0,0,0,.931,1.463,1.594,1.594,0,0,0,.685.154,1.629,1.629,0,0,0,1.036-.373l19.4-16.167a1.617,1.617,0,0,0-.066-2.535Zm-18.753,14.007V334.63a1.615,1.615,0,0,0-1.617-1.617H235.233v-9.7H261.1a1.615,1.615,0,0,0,1.617-1.617v-4.85L277.9,328.229Z" transform="translate(-232 -311.995)"/></g><g transform="translate(33.95 71.134)"><path class="a" d="M176.083,352h-6.467A1.615,1.615,0,0,0,168,353.618v12.933a1.615,1.615,0,0,0,1.617,1.617h6.467a1.615,1.615,0,0,0,1.617-1.617V353.618A1.615,1.615,0,0,0,176.083,352Zm-1.617,12.933h-3.233v-9.7h3.233Z" transform="translate(-168 -352.001)"/></g><g transform="translate(17.783 71.134)"><path class="a" d="M96.083,352H89.617A1.615,1.615,0,0,0,88,353.618v12.933a1.615,1.615,0,0,0,1.617,1.617h6.467a1.615,1.615,0,0,0,1.617-1.617V353.618A1.615,1.615,0,0,0,96.083,352Zm-1.617,12.933H91.233v-9.7h3.233Z" transform="translate(-88 -352.001)"/></g><g transform="translate(0 71.134)"><path class="a" d="M8.083,352H1.617A1.615,1.615,0,0,0,0,353.618v12.933a1.615,1.615,0,0,0,1.617,1.617H8.083A1.615,1.615,0,0,0,9.7,366.551V353.618A1.615,1.615,0,0,0,8.083,352ZM6.467,364.934H3.233v-9.7H6.467Z" transform="translate(0 -352.001)"/></g></g></svg>