<svg xmlns="http://www.w3.org/2000/svg" width="90" height="90" viewBox="0 0 90 90"><defs><style>.a{fill:#585f71;}</style></defs><path class="a" d="M75,15.891V7.5A7.509,7.509,0,0,0,67.5,0H7.5A7.509,7.509,0,0,0,0,7.5v33a7.485,7.485,0,0,0,6.726,7.423l5.639,14.637a7.5,7.5,0,0,0,9.695,4.3L57.27,53.3a21.684,21.684,0,0,0,1.868,19.253L60,73.929V88.5A1.5,1.5,0,0,0,61.5,90h27A1.5,1.5,0,0,0,90,88.5V38.987a19.631,19.631,0,0,0-5.747-13.826Zm0,8.971L79.552,36.68a4.5,4.5,0,0,1-2.583,5.815l-2.6,1.005a7.5,7.5,0,0,0,.633-3ZM3,40.5V7.5A4.5,4.5,0,0,1,7.5,3h60A4.5,4.5,0,0,1,72,7.5v9.534h-.013l.013.034V40.5a4.555,4.555,0,0,1-.1.777L58.158,27.535A8,8,0,0,0,46.608,38.6L52.465,45H7.5A4.5,4.5,0,0,1,3,40.5ZM22.216,48,11.55,52.107,9.972,48ZM20.98,64.062a4.5,4.5,0,0,1-5.817-2.581l-2.53-6.58L30.538,48v-.009H55.215l1.95,2.125ZM87,87H63V75H87Zm0-15H62.333l-.651-1.039A18.7,18.7,0,0,1,61.3,51.75a1.5,1.5,0,0,0-.2-1.758L48.813,36.582a5,5,0,0,1,7.223-6.919l23.9,23.9,2.121-2.121-5.55-5.55,1.539-.6a7.5,7.5,0,0,0,4.3-9.69L77.273,22.416l4.859,4.869A16.612,16.612,0,0,1,87,38.987Zm0,0"/><path class="a" d="M73.6,77.5a3.9,3.9,0,0,0,3.9-3.9V66.4a3.9,3.9,0,0,0-3.9-3.9H66.4a3.9,3.9,0,0,0-3.9,3.9v7.2a3.9,3.9,0,0,0,3.9,3.9Zm-8.1-3.9V71.5h3v-3h-3V66.4a.9.9,0,0,1,.9-.9h7.2a.9.9,0,0,1,.9.9v2.1h-3v3h3v2.1a.9.9,0,0,1-.9.9H66.4A.9.9,0,0,1,65.5,73.6Zm0,0" transform="translate(-56.5 -56.5)"/><path class="a" d="M78.125,265.625h6v3h-6Zm0,0" transform="translate(-70.625 -240.125)"/><path class="a" d="M78.125,359.375h6v3h-6Zm0,0" transform="translate(-70.625 -324.875)"/><path class="a" d="M359.375,359.375h6v3h-6Zm0,0" transform="translate(-324.875 -324.875)"/><path class="a" d="M171.875,265.625h6v3h-6Zm0,0" transform="translate(-155.375 -240.125)"/><path class="a" d="M265.625,265.625h6v3h-6Zm0,0" transform="translate(-240.125 -240.125)"/><path class="a" d="M359.375,265.625h6v3h-6Zm0,0" transform="translate(-324.875 -240.125)"/><path class="a" d="M656.25,78.125h3v4.5h-3Zm0,0" transform="translate(-593.25 -70.625)"/><path class="a" d="M593.75,78.125h3v4.5h-3Zm0,0" transform="translate(-536.75 -70.625)"/><path class="a" d="M531.25,78.125h3v4.5h-3Zm0,0" transform="translate(-480.25 -70.625)"/><path class="a" d="M468.75,78.125h3v4.5h-3Zm0,0" transform="translate(-423.75 -70.625)"/><path class="a" d="M687.5,812.5h3v3h-3Zm0,0" transform="translate(-621.5 -734.5)"/></svg>