<svg xmlns="http://www.w3.org/2000/svg" width="26.667" height="16" viewBox="0 0 26.667 16"><defs><style>.a{opacity:0.695;}.b{fill:#ffb600;}.c{fill:#f7981d;}.d{fill:#ff8500;}.e{fill:#ff5050;}.f{fill:#e52836;}.g{fill:#cb2026;}.h{fill:#fff;}.i{fill:#dce5e5;}</style></defs><g class="a" transform="translate(0 -100.8)"><path class="b" d="M217.6,108.8a8,8,0,0,1-16,0h0a8,8,0,1,1,16,0Z" transform="translate(-190.933 0)"/><path class="c" d="M209.6,100.8a8.021,8.021,0,0,1,8,8h0a8,8,0,0,1-16,0" transform="translate(-190.933)"/><path class="d" d="M352.8,100.8a8.021,8.021,0,0,1,8,8h0a7.994,7.994,0,0,1-8,8" transform="translate(-334.133)"/><path class="e" d="M7.915,100.8A8,8,0,0,0,8,116.8a8.093,8.093,0,0,0,5.376-2.074h0a7.6,7.6,0,0,0,.8-.847H12.529a9.766,9.766,0,0,1-.593-.8h2.836a5.423,5.423,0,0,0,.466-.847H11.471a5.045,5.045,0,0,1-.339-.847h4.4a8.4,8.4,0,0,0,.423-2.54,10.926,10.926,0,0,0-.169-1.693h-4.91a6.188,6.188,0,0,1,.212-.847h4.4a5.045,5.045,0,0,0-.339-.847H11.429a8.394,8.394,0,0,1,.466-.847H14.73a4.025,4.025,0,0,0-.635-.847H12.529a7.214,7.214,0,0,1,.8-.8,7.811,7.811,0,0,0-5.376-2.074C7.958,100.8,7.958,100.8,7.915,100.8Z"/><path class="f" d="M0,110.315a7.994,7.994,0,0,0,8,8,8.093,8.093,0,0,0,5.376-2.074h0a7.606,7.606,0,0,0,.8-.847H12.529a9.766,9.766,0,0,1-.593-.8h2.836a5.423,5.423,0,0,0,.466-.847H11.471a5.045,5.045,0,0,1-.339-.847h4.4a8.4,8.4,0,0,0,.423-2.54,10.926,10.926,0,0,0-.169-1.693h-4.91a6.188,6.188,0,0,1,.212-.847h4.4a5.045,5.045,0,0,0-.339-.847H11.429a8.4,8.4,0,0,1,.466-.847H14.73a4.025,4.025,0,0,0-.635-.847H12.529a7.214,7.214,0,0,1,.8-.8A7.811,7.811,0,0,0,7.958,102.4H7.915" transform="translate(0 -1.515)"/><path class="g" d="M149.685,118.315a8.093,8.093,0,0,0,5.376-2.074h0a7.607,7.607,0,0,0,.8-.847h-1.651a9.77,9.77,0,0,1-.593-.8h2.836a5.42,5.42,0,0,0,.466-.847h-3.767a5.046,5.046,0,0,1-.339-.847h4.4a8.4,8.4,0,0,0,.423-2.54,10.928,10.928,0,0,0-.169-1.693h-4.91a6.191,6.191,0,0,1,.212-.847h4.4a5.042,5.042,0,0,0-.339-.847h-3.725a8.4,8.4,0,0,1,.466-.847h2.836a4.026,4.026,0,0,0-.635-.847h-1.566a7.217,7.217,0,0,1,.8-.8,7.811,7.811,0,0,0-5.376-2.074H149.6" transform="translate(-141.685 -1.515)"/><g transform="translate(0.762 106.726)"><path class="h" d="M182.828,223.725l.127-.72a1.833,1.833,0,0,1-.212.042c-.3,0-.339-.169-.3-.254l.254-1.481h.466l.127-.8h-.423l.085-.508h-.847s-.508,2.794-.508,3.132a.635.635,0,0,0,.677.72A1.3,1.3,0,0,0,182.828,223.725Z" transform="translate(-172.753 -219.619)"/><path class="h" d="M210.4,230.609a1.346,1.346,0,0,0,1.481,1.481,2.2,2.2,0,0,0,.889-.127l.169-.8a2.537,2.537,0,0,1-.889.212c-.931,0-.762-.677-.762-.677h1.735a5.487,5.487,0,0,0,.127-.762,1.147,1.147,0,0,0-1.228-1.228C211.035,228.619,210.4,229.551,210.4,230.609Zm1.481-1.228c.466,0,.381.55.381.593h-.931C211.331,229.932,211.416,229.381,211.881,229.381Z" transform="translate(-200.03 -227.858)"/><path class="h" d="M298.328,216.906l.169-.931a2.08,2.08,0,0,1-.72.212c-.593,0-.847-.466-.847-.974,0-1.016.508-1.566,1.1-1.566a1.414,1.414,0,0,1,.762.254l.127-.889a2.976,2.976,0,0,0-.974-.212c-.974,0-1.947.847-1.947,2.455,0,1.058.508,1.778,1.524,1.778A3.8,3.8,0,0,0,298.328,216.906Z" transform="translate(-281.101 -212.8)"/><path class="h" d="M88.008,227.2a3,3,0,0,0-1.016.169l-.127.72a2.5,2.5,0,0,1,.931-.169c.3,0,.55.042.55.3,0,.169-.042.212-.042.212h-.381c-.72,0-1.524.3-1.524,1.27,0,.762.508.931.8.931a1.272,1.272,0,0,0,.889-.381l-.042.339h.762l.339-2.328A1,1,0,0,0,88.008,227.2Zm.169,1.9c0,.127-.085.8-.593.8a.33.33,0,0,1-.339-.339c0-.212.127-.508.762-.508A.667.667,0,0,0,88.178,229.1Z" transform="translate(-82.59 -226.438)"/><path class="h" d="M136.174,229.871a1.085,1.085,0,0,0,1.27-1.1c0-1.058-1.016-.847-1.016-1.27,0-.212.169-.3.466-.3.127,0,.593.042.593.042l.127-.762a3.216,3.216,0,0,0-.8-.085c-.635,0-1.27.254-1.27,1.1,0,.974,1.058.889,1.058,1.27,0,.254-.3.3-.508.3a2.768,2.768,0,0,1-.762-.127l-.127.762C135.242,229.786,135.454,229.871,136.174,229.871Z" transform="translate(-128.808 -225.68)"/><path class="h" d="M429.613,214.4l-.169,1.143a1.174,1.174,0,0,0-.8-.423c-.762,0-1.439.931-1.439,2.032,0,.677.339,1.4,1.058,1.4a1.13,1.13,0,0,0,.8-.339l-.042.3h.846l.635-4.063Zm-.381,2.243c0,.466-.212,1.058-.677,1.058-.3,0-.466-.254-.466-.677,0-.677.3-1.1.677-1.1C429.062,215.924,429.232,216.135,429.232,216.643Z" transform="translate(-405.359 -214.315)"/><path class="h" d="M15.2,218.464l.508-3.048.085,3.048h.593l1.1-3.048-.466,3.048h.889l.677-4.063h-1.4l-.847,2.5-.042-2.5H15.077l-.677,4.063Z" transform="translate(-14.4 -214.315)"/><path class="h" d="M260.931,232.1c.254-1.4.3-2.54.889-2.328a3.318,3.318,0,0,1,.3-.974h-.169c-.381,0-.677.508-.677.508l.085-.466h-.8l-.55,3.3h.931Z" transform="translate(-247.005 -227.953)"/><path class="h" d="M348.008,227.2a3,3,0,0,0-1.016.169l-.127.72a2.5,2.5,0,0,1,.931-.169c.3,0,.55.042.55.3,0,.169-.042.212-.042.212h-.381c-.72,0-1.524.3-1.524,1.27,0,.762.508.931.8.931a1.272,1.272,0,0,0,.889-.381l-.042.339h.762l.339-2.328A.988.988,0,0,0,348.008,227.2Zm.212,1.9c0,.127-.085.8-.593.8a.33.33,0,0,1-.339-.339c0-.212.127-.508.762-.508C348.178,229.1,348.178,229.1,348.22,229.1Z" transform="translate(-328.834 -226.438)"/><path class="h" d="M395.331,232.1c.254-1.4.3-2.54.889-2.328a3.323,3.323,0,0,1,.3-.974h-.169c-.381,0-.677.508-.677.508l.085-.466h-.8l-.55,3.3h.931Z" transform="translate(-374.294 -227.953)"/></g><g transform="translate(0.762 106.726)"><path class="i" d="M180,223.132a.635.635,0,0,0,.677.72,1.611,1.611,0,0,0,.635-.127l.127-.72a1.833,1.833,0,0,1-.212.042c-.3,0-.339-.169-.3-.254l.254-1.481h.466l.127-.8h-.423l.085-.508" transform="translate(-171.238 -219.619)"/><path class="i" d="M218.4,230.609c0,1.185.381,1.481,1.058,1.481a2.2,2.2,0,0,0,.889-.127l.169-.8a2.537,2.537,0,0,1-.889.212c-.931,0-.762-.677-.762-.677H220.6a5.487,5.487,0,0,0,.127-.762A1.147,1.147,0,0,0,219.5,228.7C218.612,228.619,218.4,229.551,218.4,230.609Zm1.058-1.228c.466,0,.55.55.55.593h-1.1C218.908,229.932,218.993,229.381,219.458,229.381Z" transform="translate(-207.606 -227.858)"/><path class="i" d="M305.9,216.906l.169-.931a2.08,2.08,0,0,1-.72.212c-.593,0-.847-.466-.847-.974,0-1.016.508-1.566,1.1-1.566a1.414,1.414,0,0,1,.762.254l.127-.889a2.976,2.976,0,0,0-.974-.212c-.974,0-1.524.847-1.524,2.455,0,1.058.085,1.778,1.1,1.778A3.8,3.8,0,0,0,305.9,216.906Z" transform="translate(-288.677 -212.8)"/><path class="i" d="M86.866,229.647a2.5,2.5,0,0,1,.931-.169c.3,0,.55.042.55.3,0,.169-.042.212-.042.212h-.381c-.72,0-1.524.3-1.524,1.27,0,.762.508.931.8.931a1.272,1.272,0,0,0,.889-.381l-.042.339h.762l.339-2.328c0-.974-.847-1.016-1.185-1.016m.635,1.82a1.386,1.386,0,0,1-1.016.8.33.33,0,0,1-.339-.339c0-.212.127-.508.762-.508A3.458,3.458,0,0,0,88.6,230.62Z" transform="translate(-82.59 -227.953)"/><path class="i" d="M136,229.786a3.582,3.582,0,0,0,.974.085,1.085,1.085,0,0,0,1.27-1.1c0-1.058-1.016-.847-1.016-1.27,0-.212.169-.3.466-.3.127,0,.593.042.593.042l.127-.762a3.216,3.216,0,0,0-.8-.085c-.635,0-.847.254-.847,1.1,0,.974.635.889.635,1.27,0,.254-.3.3-.508.3" transform="translate(-129.566 -225.68)"/><path class="i" d="M436.965,216.3a1.174,1.174,0,0,0-.8-.423c-.762,0-1.016.931-1.016,2.032,0,.677-.085,1.4.635,1.4a1.13,1.13,0,0,0,.8-.339l-.042.3h.847l.635-4.063m-1.1,2.2c0,.466-.381,1.058-.847,1.058-.3,0-.466-.254-.466-.677,0-.677.3-1.1.677-1.1A.647.647,0,0,1,436.923,217.4Z" transform="translate(-412.88 -215.073)"/><path class="i" d="M15.2,218.464l.508-3.048.085,3.048h.593l1.1-3.048-.466,3.048h.889l.677-4.063H17.532l-1.185,2.5-.042-2.5h-.466L14.4,218.464Z" transform="translate(-14.4 -214.315)"/><path class="i" d="M260.8,232.1h.889c.254-1.4.3-2.54.889-2.328a3.327,3.327,0,0,1,.3-.974H262.7c-.381,0-.677.508-.677.508l.085-.466" transform="translate(-247.763 -227.953)"/><path class="i" d="M346.866,229.647a2.5,2.5,0,0,1,.931-.169c.3,0,.55.042.55.3,0,.169-.042.212-.042.212h-.381c-.719,0-1.524.3-1.524,1.27,0,.762.508.931.8.931a1.272,1.272,0,0,0,.889-.381l-.042.339h.762l.339-2.328c0-.974-.847-1.016-1.185-1.016m.635,1.82a1.386,1.386,0,0,1-1.016.8.33.33,0,0,1-.339-.339c0-.212.127-.508.762-.508A3.723,3.723,0,0,0,348.6,230.62Z" transform="translate(-328.834 -227.953)"/><path class="i" d="M395.2,232.1h.889c.254-1.4.3-2.54.889-2.328a3.319,3.319,0,0,1,.3-.974H397.1c-.381,0-.677.508-.677.508l.085-.466" transform="translate(-375.052 -227.953)"/></g></g></svg>