<svg xmlns="http://www.w3.org/2000/svg" width="42.736" height="28" viewBox="0 0 42.736 28"><defs><style>.a{fill:#585f71;}</style></defs><g transform="translate(0 -81.376)"><g transform="translate(0 81.376)"><path class="a" d="M39.052,81.376H3.684A3.688,3.688,0,0,0,0,85.06v20.632a3.688,3.688,0,0,0,3.684,3.684H39.052a3.688,3.688,0,0,0,3.684-3.684V85.06A3.688,3.688,0,0,0,39.052,81.376ZM3.684,82.462H39.052a2.6,2.6,0,0,1,2.6,2.6v2.33H1.087V85.06A2.6,2.6,0,0,1,3.684,82.462Zm35.368,25.827H3.684a2.6,2.6,0,0,1-2.6-2.6V90.015H41.649v15.677A2.6,2.6,0,0,1,39.052,108.289Z" transform="translate(0 -81.376)"/><path class="a" d="M58.454,243.591h-6.34A2.116,2.116,0,0,0,50,245.7v2.513a2.116,2.116,0,0,0,2.114,2.114h6.34a2.116,2.116,0,0,0,2.114-2.114V245.7A2.116,2.116,0,0,0,58.454,243.591Zm1.027,4.626a1.028,1.028,0,0,1-1.027,1.027h-6.34a1.028,1.028,0,0,1-1.027-1.027V245.7a1.028,1.028,0,0,1,1.027-1.027h6.34a1.028,1.028,0,0,1,1.027,1.027v2.513Z" transform="translate(-45.473 -228.904)"/><path class="a" d="M234.418,243.591H216.738a.543.543,0,1,0,0,1.087h17.679a.543.543,0,0,0,0-1.087Z" transform="translate(-196.62 -228.904)"/><path class="a" d="M225.231,290.418h-8.493a.543.543,0,1,0,0,1.086h8.493a.543.543,0,1,0,0-1.086Z" transform="translate(-196.62 -271.491)"/></g></g></svg>