<svg xmlns="http://www.w3.org/2000/svg" width="30.526" height="28" viewBox="0 0 30.526 28"><defs><style>.a{fill:#585f71;}</style></defs><g transform="translate(0 -20.113)"><g transform="translate(0 20.113)"><path class="a" d="M26.425,24.214A14,14,0,0,0,6.5,24.34.755.755,0,1,0,7.583,25.4,12.494,12.494,0,1,1,4.04,34.113v-.157L5.277,35.2a.756.756,0,0,0,.534.22.767.767,0,0,0,.534-.22.754.754,0,0,0,0-1.068L3.82,31.6a.754.754,0,0,0-1.068,0L.221,34.132A.755.755,0,0,0,1.289,35.2l1.244-1.244v.157a14,14,0,1,0,27.994,0A13.911,13.911,0,0,0,26.425,24.214Z" transform="translate(0 -20.113)"/><path class="a" d="M193.211,103.613a.756.756,0,0,0-.754.754v1.828h-.477a3.454,3.454,0,1,0,0,6.909h2.462a1.947,1.947,0,0,1,0,3.894h-4.428a.754.754,0,0,0,0,1.507h2.443v1.853a.754.754,0,1,0,1.507,0V118.5h.521a3.455,3.455,0,0,0-.044-6.909h-2.462a1.947,1.947,0,1,1,0-3.894h4.346a.754.754,0,0,0,0-1.507h-2.362v-1.828A.752.752,0,0,0,193.211,103.613Z" transform="translate(-176.684 -98.368)"/></g></g></svg>