<svg xmlns="http://www.w3.org/2000/svg" width="28.191" height="28" viewBox="0 0 28.191 28"><defs><style>.a{fill:#585f71;}</style></defs><g transform="translate(0 -1.733)"><path class="a" d="M20.936,128.338H.827V114.316H4.084a.414.414,0,1,0,0-.827H.414A.414.414,0,0,0,0,113.9v14.849a.414.414,0,0,0,.414.414h3.6l1.541,3.322a.417.417,0,0,0,.549.2l1.508-.7,4.573,3.263a.418.418,0,0,0,.577-.1l4.274-5.99h3.9a.414.414,0,1,0,0-.827Zm-16.014.827h6.81l-5.6,2.6Zm7.4,5.173-3.854-2.75,5.226-2.424h2.319Z" transform="translate(0 -105.594)"/><path class="a" d="M119.021,7.9h-3.6l-1.541-3.322a.418.418,0,0,0-.549-.2l-1.508.7-4.573-3.263a.418.418,0,0,0-.577.1L102.4,7.9h-5.42a.414.414,0,0,0,0,.827h21.626V22.744h-4.774a.414.414,0,0,0,0,.827h5.187a.414.414,0,0,0,.414-.414V8.309A.413.413,0,0,0,119.021,7.9Zm-4.509,0H107.7l5.6-2.6Zm-7.4-5.173,3.854,2.75L105.737,7.9h-2.319Z" transform="translate(-91.243)"/><path class="a" d="M188,192.044a3.947,3.947,0,1,0-3.947-3.947A3.951,3.951,0,0,0,188,192.044Zm0-7.067a3.12,3.12,0,1,1-3.12,3.12A3.123,3.123,0,0,1,188,184.977Z" transform="translate(-173.909 -172.359)"/><path class="a" d="M45.766,161.861h12.6a.414.414,0,0,0,.414-.414,2.234,2.234,0,0,1,2.119-2.063.414.414,0,0,0,.414-.414v-5.843a.414.414,0,0,0-.414-.414,2.234,2.234,0,0,1-2.119-2.063.414.414,0,0,0-.414-.414H39.946a.414.414,0,0,0-.414.414,2.043,2.043,0,0,1-1.894,2.074.414.414,0,0,0-.414.414v5.821a.414.414,0,0,0,.414.414,2.043,2.043,0,0,1,1.894,2.074.414.414,0,0,0,.414.414h4.167a.414.414,0,0,0,0-.827H40.328a3.056,3.056,0,0,0-.75-1.587,2.663,2.663,0,0,0-1.527-.866v-5.064a2.663,2.663,0,0,0,1.527-.866,3.056,3.056,0,0,0,.75-1.587H57.987a3.151,3.151,0,0,0,2.5,2.442v5.085a3.151,3.151,0,0,0-2.5,2.442H45.766a.414.414,0,0,0,0,.827Z" transform="translate(-35.172 -140.317)"/></g></svg>