<svg xmlns="http://www.w3.org/2000/svg" width="30.927" height="28" viewBox="0 0 30.927 28"><defs><style>.a{fill:#585f71;}</style></defs><g transform="translate(0 7.014)"><path class="a" d="M7.524.2A.693.693,0,0,1,8.705.693v3.7a9.46,9.46,0,0,1,5.9,1.958,10.5,10.5,0,0,1,3.644,6.1,10.753,10.753,0,0,1,.124,3.517v0c0,.01,0,.021,0,.031l-.147.846a.693.693,0,0,1-1.276.238l-.441-.735a9.731,9.731,0,0,0-5.02-4.439,7.275,7.275,0,0,0-2.78-.407v3.828a.693.693,0,0,1-1.184.488L.2,8.464a.693.693,0,0,1,0-.979Zm-.2,13.453V10.882A.693.693,0,0,1,7.9,10.2a8.474,8.474,0,0,1,4.041.407,10.583,10.583,0,0,1,5.136,4.09,9.867,9.867,0,0,0-.188-1.976,9.011,9.011,0,0,0-3.178-5.314c-.015-.012-.029-.025-.043-.038-.048-.045-1.808-1.633-5.653-1.6H8.013A.693.693,0,0,1,7.32,5.07V2.359L1.672,7.979Zm0,0" transform="translate(13.504 11.45) rotate(-90)"/><path class="a" d="M28.909,75.318a.693.693,0,0,0-.693.693v2.927a2.08,2.08,0,0,1-2.078,2.078H3.463a2.08,2.08,0,0,1-2.078-2.078v-16.5a2.08,2.08,0,0,1,2.078-2.078H8.254a.693.693,0,1,0,0-1.385H3.463A3.467,3.467,0,0,0,0,62.436v16.5A3.467,3.467,0,0,0,3.463,82.4H26.138A3.467,3.467,0,0,0,29.6,78.938V76.011A.693.693,0,0,0,28.909,75.318Zm0,0" transform="translate(0 -61.416)"/></g></svg>