<svg xmlns="http://www.w3.org/2000/svg" width="30.927" height="28" viewBox="0 0 30.927 28"><defs><style>.a{fill:#585f71;}</style></defs><g transform="translate(0 7.014)"><path class="a" d="M10.94,17.221a.693.693,0,0,1-1.181-.491v-3.7a9.46,9.46,0,0,1-5.9-1.958,10.5,10.5,0,0,1-3.644-6.1A10.753,10.753,0,0,1,.09,1.455v0c0-.01,0-.021,0-.031L.242.574A.693.693,0,0,1,1.518.336l.441.735a9.731,9.731,0,0,0,5.02,4.439,7.275,7.275,0,0,0,2.78.407V2.09A.693.693,0,0,1,10.943,1.6l7.32,7.357a.693.693,0,0,1,0,.979Zm.2-13.453V6.541a.693.693,0,0,1-.583.684,8.474,8.474,0,0,1-4.041-.407,10.583,10.583,0,0,1-5.136-4.09A9.867,9.867,0,0,0,1.572,4.7,9.011,9.011,0,0,0,4.75,10.017c.015.012.029.025.043.038.048.045,1.808,1.633,5.653,1.6h.005a.693.693,0,0,1,.693.693v2.711l5.648-5.619Zm0,0" transform="translate(13.504 11.45) rotate(-90)"/><path class="a" d="M28.909,75.318a.693.693,0,0,0-.693.693v2.927a2.08,2.08,0,0,1-2.078,2.078H3.463a2.08,2.08,0,0,1-2.078-2.078v-16.5a2.08,2.08,0,0,1,2.078-2.078H8.254a.693.693,0,1,0,0-1.385H3.463A3.467,3.467,0,0,0,0,62.436v16.5A3.467,3.467,0,0,0,3.463,82.4H26.138A3.467,3.467,0,0,0,29.6,78.938V76.011A.693.693,0,0,0,28.909,75.318Zm0,0" transform="translate(0 -61.416)"/></g></svg>