<svg xmlns="http://www.w3.org/2000/svg" width="18.801" height="30" viewBox="0 0 18.801 30"><defs><style>.a{fill:#3e92cc;}</style></defs><path class="a" d="M21,10v3H16V37h5v3h2V37h2v3h2V36.99c2.3-.065,7.8-.709,7.8-6.791a5.831,5.831,0,0,0-5.1-5.8v-.1a5.492,5.492,0,0,0,4.2-5.4c0-5.115-4.844-5.789-6.9-5.879V10H25v3H23V10Zm-2.7,4.9h7.9q5.4,0,5.4,4.5a4.143,4.143,0,0,1-.3,1.6,4.128,4.128,0,0,1-1,1.3,4.611,4.611,0,0,1-1.7.9,8.752,8.752,0,0,1-2.4.3H18.3Zm0,10.6h7.9a7.971,7.971,0,0,1,4.7,1.2,4.06,4.06,0,0,1,1.6,3.5,5.357,5.357,0,0,1-.5,2.4,5.019,5.019,0,0,1-1.4,1.5,4.448,4.448,0,0,1-2,.8,16.606,16.606,0,0,1-2.4.2H18.3Z" transform="translate(-16 -10)"/></svg>