<svg xmlns="http://www.w3.org/2000/svg" width="23.133" height="32" viewBox="0 0 23.133 32">
  <defs>
    <style>
      .cls-1 {
        fill: #238ed7;
      }
    </style>
  </defs>
  <path id="BTC_alt_1_" class="cls-1" d="M52.99,16.179a7.321,7.321,0,0,0-2.5-1.087,6.818,6.818,0,0,0,1.751-1.441,5.474,5.474,0,0,0,.805-2.415A5.048,5.048,0,0,0,51.3,6.83,9.55,9.55,0,0,0,45.9,5.179V.278H42.879V5.122h-2.3V.278H37.555V5.122H31.61V8.26h1.747a2.5,2.5,0,0,1,1.684.456c.36.4.424.614.424,1.4s0,12.208,0,12.505a1.224,1.224,0,0,1-.311.9c-.254.24-.508.3-1.116.3H32.231l-.621,3.63h5.945v4.83h3.022v-4.83h2.3v4.83H45.9v-4.91c.781-.046,1.51-.1,1.934-.16a10.051,10.051,0,0,0,4.632-1.61c1.821-1.271,2.231-3.262,2.273-5.268A4.833,4.833,0,0,0,52.99,16.179ZM40.577,8.539s.96-.085,1.906-.071a9.615,9.615,0,0,1,3.022.424,2.613,2.613,0,0,1,2.005,2.415,2.367,2.367,0,0,1-1.3,2.3,7.362,7.362,0,0,1-3.121.762c-1.1.043-2.514,0-2.514,0Zm6.764,14.446a9.594,9.594,0,0,1-3.417.819c-1.342.1-3.347.057-3.347.057V17.379s1.921-.1,3.418,0a9.676,9.676,0,0,1,3.318.763,2.674,2.674,0,0,1,.028,4.843Z" transform="translate(-31.61 -0.278)"/>
</svg>
