<svg xmlns="http://www.w3.org/2000/svg" width="21.907" height="30" viewBox="0 0 21.907 30">
  <defs>
    <style>
      .cls-1 {
        fill: #238ed7;
      }
    </style>
  </defs>
  <g id="line_3_" transform="translate(-160.465 -177.121)">
    <path id="Path_347" data-name="Path 347" class="cls-1" d="M160.465,196.455h2.928a13.424,13.424,0,0,0,3.345,6.709,12.462,12.462,0,0,0,9.5,3.957,13.256,13.256,0,0,0,6-1.284v-6.055a8.029,8.029,0,0,1-6.055,2.336,6.423,6.423,0,0,1-5.146-2.336,7.791,7.791,0,0,1-1.523-3.324h9.024l.635-3.068H169.093q-.041-.749-.042-1.445c0-.476.008-.863.021-1.168h10.647l.633-3.068H169.47a7.63,7.63,0,0,1,1.6-3.265,6.579,6.579,0,0,1,5.226-2.317,6.65,6.65,0,0,1,4.906,1.682l1.168-5.482a14.212,14.212,0,0,0-15.612,2.793,13.552,13.552,0,0,0-3.3,6.589H161.1l-.633,3.068h2.592c-.027.463-.04,1-.04,1.6,0,.355.006.692.021,1.009H161.1Z" transform="translate(0 0)"/>
  </g>
</svg>
