<svg xmlns="http://www.w3.org/2000/svg" width="15.62" height="30" viewBox="0 0 15.62 30">
  <defs>
    <style>
      .cls-1 {
        fill: #238ed7;
      }
    </style>
  </defs>
  <path id="iconfinder_usd_1608712" class="cls-1" d="M444.589,19.838a6.369,6.369,0,0,1-1.666,4.411,7.189,7.189,0,0,1-4.328,2.285v2.93a.516.516,0,0,1-.536.536H435.8a.543.543,0,0,1-.536-.536v-2.93a10.552,10.552,0,0,1-2.134-.519,10.28,10.28,0,0,1-2.938-1.549,9.564,9.564,0,0,1-.778-.628q-.209-.2-.293-.3a.508.508,0,0,1-.033-.686l1.724-2.26a.521.521,0,0,1,.385-.2.415.415,0,0,1,.4.151l.033.033a8.742,8.742,0,0,0,4.068,2.093,5.847,5.847,0,0,0,1.239.134,4.059,4.059,0,0,0,2.386-.72,2.345,2.345,0,0,0,1.03-2.042,1.7,1.7,0,0,0-.251-.887,3.139,3.139,0,0,0-.561-.7,4.592,4.592,0,0,0-.979-.628q-.67-.343-1.1-.536t-1.339-.544q-.653-.268-1.03-.419t-1.03-.444q-.653-.293-1.046-.519t-.946-.594a5.9,5.9,0,0,1-.9-.711,10.418,10.418,0,0,1-.728-.82,4.1,4.1,0,0,1-.594-.971,6.706,6.706,0,0,1-.352-1.113,5.818,5.818,0,0,1-.142-1.306,5.724,5.724,0,0,1,1.641-4.051,7.66,7.66,0,0,1,4.269-2.243V.536a.515.515,0,0,1,.159-.377A.515.515,0,0,1,435.8,0h2.26a.516.516,0,0,1,.536.536V3.482a9.311,9.311,0,0,1,1.85.385,10.732,10.732,0,0,1,1.456.561,8.064,8.064,0,0,1,1.063.628q.5.352.653.485t.251.234a.484.484,0,0,1,.084.636L442.6,8.856a.456.456,0,0,1-.385.268.533.533,0,0,1-.452-.117q-.05-.05-.243-.2t-.653-.444a8.64,8.64,0,0,0-.979-.536,7.477,7.477,0,0,0-1.247-.435,5.585,5.585,0,0,0-1.431-.193,4.351,4.351,0,0,0-2.595.72,2.25,2.25,0,0,0-.862,2.662,1.885,1.885,0,0,0,.494.695,7.37,7.37,0,0,0,.661.552,5.9,5.9,0,0,0,.938.519q.628.293,1.013.452t1.172.46q.887.335,1.356.527t1.272.586a10.118,10.118,0,0,1,1.264.711,10.678,10.678,0,0,1,1.038.837,4.339,4.339,0,0,1,.887,1.063,6.056,6.056,0,0,1,.527,1.281A5.529,5.529,0,0,1,444.589,19.838Z" transform="translate(-428.969)"/>
</svg>
