<svg xmlns="http://www.w3.org/2000/svg" width="32.417" height="30" viewBox="0 0 32.417 30">
  <defs>
    <style>
      .cls-1 {
        fill: #238ed7;
      }
    </style>
  </defs>
  <path id="iconfinder_USDT_1175339" class="cls-1" d="M33.387,23.033c0-2.044-5.562-3.749-12.953-4.143V15.633h9.229V8.855H4.427v6.778h9.228v3.273C6.4,19.326.97,21.014.97,23.033S6.4,26.74,13.655,27.16v11.7h6.779V27.176C27.825,26.783,33.387,25.077,33.387,23.033ZM17.179,25.047c-7.933,0-14.365-1.228-14.365-2.743,0-1.283,4.612-2.361,10.841-2.66v.772h0V23.58c1.123.063,2.3.1,3.523.1,1.123,0,2.213-.029,3.256-.081V19.631c6.365.281,11.11,1.37,11.11,2.672C31.544,23.819,25.112,25.047,17.179,25.047Z" transform="translate(-0.97 -8.855)"/>
</svg>
