<svg xmlns="http://www.w3.org/2000/svg" width="28.512" height="30" viewBox="0 0 28.512 30">
  <defs>
    <style>
      .cls-1 {
        fill: #238ed7;
      }
    </style>
  </defs>
  <path id="XRP" class="cls-1" d="M31.268,19.339a6.5,6.5,0,0,0-3.185-.8l.009-.005a2.606,2.606,0,1,1-.124-5.209h0a6.5,6.5,0,0,0,3.225-.87,6.1,6.1,0,0,0,2.225-8.492A6.491,6.491,0,0,0,24.667,1.8a6.1,6.1,0,0,0-2.225,8.492,2.54,2.54,0,0,1-.927,3.538,2.706,2.706,0,0,1-3.611-.848h0v0A6.261,6.261,0,0,0,15.523,10.7a6.486,6.486,0,0,0-8.7,2.347,6.1,6.1,0,0,0,2.418,8.442,6.486,6.486,0,0,0,8.7-2.347c.01-.018.02-.037.03-.055v0h0a2.7,2.7,0,0,1,3.593-.928,2.542,2.542,0,0,1,1.007,3.517,6.1,6.1,0,0,0,2.417,8.442,6.486,6.486,0,0,0,8.7-2.347A6.1,6.1,0,0,0,31.268,19.339Z" transform="translate(-6 -0.93)"/>
</svg>
