<svg xmlns="http://www.w3.org/2000/svg" width="16" height="16" viewBox="0 0 16 16"><defs><style>.a{fill:#4176fa;}.b{fill:#f1f2f2;}</style></defs><g transform="translate(0 0)"><circle class="a" cx="8" cy="8" r="8" transform="translate(0 0)"/></g><g transform="translate(3.267 5.075)"><path class="b" d="M30.511,37.121A2.263,2.263,0,0,0,28.2,39.434a2.139,2.139,0,0,0,2.314,2.3s2.062.117,2.062-1.6H31.514s.035.648-.968.648a.979.979,0,0,1-1.059-1.047h3.12S32.951,37.121,30.511,37.121ZM29.476,38.93A1.075,1.075,0,0,1,30.534,38a.893.893,0,0,1,.918.927Zm-2.645-.592a1.044,1.044,0,0,0,.918-1.147,1.54,1.54,0,0,0-1.7-1.6H22.91v6.026h3.135a1.789,1.789,0,0,0,1.915-1.78S28.042,38.338,26.831,38.338Zm-2.54-1.68h1.754s.425,0,.425.627-.249.718-.534.718H24.291Zm1.666,3.885H24.291V38.93h1.754s.636-.006.633.83C26.678,40.464,26.206,40.537,25.957,40.543Zm3.258-4.6v.742H31.7v-.742Z" transform="translate(-22.91 -35.587)"/></g></svg>