<svg xmlns="http://www.w3.org/2000/svg" width="16" height="16" viewBox="0 0 16 16"><defs><style>.a{fill:#007ab9;}.b{fill:#f1f2f2;}</style></defs><g transform="translate(0 0.001)"><circle class="a" cx="8" cy="8" r="8" transform="translate(0 -0.001)"/><g transform="translate(3.86 3.417)"><path class="b" d="M35.988,29.194v3.3H34.076V29.415c0-.773-.276-1.3-.968-1.3a1.046,1.046,0,0,0-.981.7,1.309,1.309,0,0,0-.063.466v3.212H30.151s.026-5.212,0-5.751h1.913v.815c0,.006-.009.013-.013.019h.013v-.019a1.9,1.9,0,0,1,1.723-.95c1.258,0,2.2.822,2.2,2.588ZM28.15,23.969a1,1,0,1,0-.025,1.988h.012a1,1,0,1,0,.013-1.988Zm-.968,8.524h1.912V26.741H27.182Z" transform="translate(-27.068 -23.969)"/></g></g></svg>