<svg xmlns="http://www.w3.org/2000/svg" width="16" height="16" viewBox="0 0 16 16"><defs><style>.a{fill:#29b6f6;}.b{fill:#fff;}.c{fill:#b0bec5;}.d{fill:#cfd8dc;}</style></defs><g transform="translate(-4 -4)"><path class="a" d="M12,4a8,8,0,1,0,8,8A8,8,0,0,0,12,4Z"/><path class="b" d="M19.58,14.4l-1.5,7.65a.467.467,0,0,1-.5.35.535.535,0,0,1-.349-.11L13.989,19.6,12.4,18.8l-2.038-.542s-.363-.1-.363-.4c0-.25.373-.369.373-.369L18.9,14.094A1.629,1.629,0,0,1,19.35,14c.117,0,.25.05.25.2A1.169,1.169,0,0,1,19.58,14.4Z" transform="translate(-3.6 -6)"/><path class="c" d="M20.6,29l-1.37,1.35a.262.262,0,0,1-.139.048.2.2,0,0,1-.088-.017l.386-2.386Z" transform="translate(-9.004 -14.395)"/><path class="d" d="M21.559,18.078a.2.2,0,0,0-.28-.037L16,21.2s.842,2.357.971,2.765.232.418.232.418L17.588,22l3.933-3.638A.2.2,0,0,0,21.559,18.078Z" transform="translate(-7.2 -8.4)"/></g></svg>