<svg xmlns="http://www.w3.org/2000/svg" width="15.932" height="16" viewBox="0 0 15.932 16"><defs><style>.a,.d{fill:#fff;}.b{fill:#cfd8dc;}.c{fill:#40c351;}.d{fill-rule:evenodd;}</style></defs><g transform="translate(-3.868 -4)"><path class="a" d="M4.868,20.206l1.069-3.9a7.538,7.538,0,1,1,6.531,3.774h0a7.529,7.529,0,0,1-3.6-.917Z" transform="translate(-0.603 -0.603)"/><path class="a" d="M4.567,20.1a.2.2,0,0,1-.191-.25l1.048-3.825a7.735,7.735,0,1,1,3.114,3.041L4.617,20.1A.182.182,0,0,1,4.567,20.1Z" transform="translate(-0.302 -0.302)"/><path class="b" d="M11.865,4.4a7.538,7.538,0,0,1,0,15.075h0a7.529,7.529,0,0,1-3.6-.917l-4,1.048,1.069-3.9A7.538,7.538,0,0,1,11.865,4.4m0,15.075h0m0,0h0M11.865,4h0A7.936,7.936,0,0,0,4.908,15.751L3.882,19.5a.4.4,0,0,0,.484.489l3.846-1.008A7.935,7.935,0,1,0,11.865,4Z" transform="translate(0)"/><path class="c" d="M18.928,10.042A6.265,6.265,0,0,0,9.19,17.8l.149.237-.633,2.311,2.371-.622.229.136a6.253,6.253,0,0,0,3.189.873h0a6.265,6.265,0,0,0,4.431-10.694Z" transform="translate(-2.632 -2.536)"/><path class="d" d="M16.311,15.544c-.141-.314-.289-.32-.424-.326-.11,0-.235,0-.361,0a.692.692,0,0,0-.5.236,2.111,2.111,0,0,0-.659,1.57,3.662,3.662,0,0,0,.769,1.948,7.732,7.732,0,0,0,3.217,2.843c1.591.627,1.915.5,2.26.471a1.9,1.9,0,0,0,1.271-.9,1.577,1.577,0,0,0,.11-.9c-.047-.079-.173-.125-.361-.22s-1.114-.55-1.287-.613-.3-.094-.424.094-.486.613-.6.738-.22.142-.408.047A5.155,5.155,0,0,1,17.4,19.6a5.674,5.674,0,0,1-1.048-1.3c-.11-.188-.012-.29.083-.384s.188-.22.283-.33a1.288,1.288,0,0,0,.188-.314.346.346,0,0,0-.016-.33C16.845,16.848,16.479,15.916,16.311,15.544Z" transform="translate(-6.33 -6.762)"/></g></svg>